<svg width="137" height="32" viewBox="0 0 137 32" fill="none" xmlns="http://www.w3.org/2000/svg">
<g clip-path="url(#clip0_3732_206)">
<path fill-rule="evenodd" clip-rule="evenodd" d="M11.1452 0.0012311C7.93691 0.0012311 6.33155 0.00123113 4.61663 0.534298C2.72442 1.22002 1.23233 2.71212 0.54661 4.60678C0 6.33895 0 7.94184 0 11.1513V20.8351C0 24.0619 0 25.6512 0.533068 27.3797C1.21879 29.2731 2.71088 30.7652 4.60308 31.4509C6.33401 32 7.93691 32 11.1452 32H20.8389C24.0508 32 25.6525 32 27.3797 31.4509C29.2731 30.7652 30.764 29.2731 31.4497 27.3797C31.9963 25.6475 31.9963 24.0446 31.9963 20.8351V11.1649C31.9963 7.95169 31.9963 6.34879 31.4497 4.62033C30.764 2.72689 29.2719 1.2348 27.3797 0.549072C25.6365 0 24.0508 0 20.8229 0H11.1439L11.1452 0.0012311Z" fill="#00D633"/>
<path d="M17.2927 14.4459C20.6641 15.1683 22.2053 16.565 22.2053 18.925C22.2053 21.8835 19.7962 24.0674 16.0354 24.2986L15.6685 26.0485C15.6326 26.2196 15.4818 26.3421 15.307 26.3421H12.4138C12.1754 26.3421 11.9994 26.1195 12.0545 25.8875L12.5188 23.9305C10.6547 23.4001 9.15468 22.3683 8.28022 21.0948C8.17012 20.9345 8.20665 20.7154 8.36018 20.596L10.3824 19.0232C10.5491 18.8935 10.788 18.9315 10.9112 19.103C11.9827 20.5944 13.6266 21.4776 15.607 21.4776C17.389 21.4776 18.7375 20.6107 18.7375 19.3585C18.7375 18.3952 18.0633 17.9618 15.7996 17.4801C11.8984 16.6614 10.3572 15.2165 10.3572 12.8565C10.3572 10.1183 12.6585 8.04985 16.1297 7.7812L16.5087 5.97378C16.5445 5.80273 16.6954 5.68024 16.8701 5.68024H19.7245C19.96 5.68024 20.1353 5.89764 20.0855 6.12777L19.6467 8.15292C21.1404 8.6127 22.3567 9.43482 23.1138 10.4493C23.2311 10.6066 23.2009 10.8292 23.0492 10.9536L21.2042 12.4665C21.0439 12.598 20.8098 12.5693 20.6795 12.4081C19.7418 11.2483 18.2656 10.5928 16.6665 10.5928C14.8845 10.5928 13.7768 11.3634 13.7768 12.4712C13.7768 13.3863 14.6437 13.8679 17.2927 14.4459Z" fill="white"/>
<path d="M48.8275 21.6088C50.5244 21.6088 51.7914 20.6315 52.3366 19.0052C52.4023 18.8095 52.6106 18.7011 52.8062 18.767L54.9843 19.5015C55.1824 19.5683 55.2865 19.7868 55.2127 19.9823C54.2025 22.6578 51.9886 24.3258 48.8275 24.3258C44.5048 24.3258 41.361 20.9013 41.361 16.0172C41.361 11.1331 44.5048 7.70862 48.8275 7.70862C51.9886 7.70862 54.2025 9.37667 55.2127 12.0521C55.2865 12.2477 55.1824 12.4661 54.9843 12.5329L52.8062 13.2674C52.6106 13.3334 52.4023 13.225 52.3366 13.0293C51.7914 11.403 50.5244 10.4257 48.8275 10.4257C46.2676 10.4257 44.4599 12.6377 44.4599 16.0172C44.4599 19.3968 46.2676 21.6088 48.8275 21.6088Z" fill="black"/>
<path d="M63.5806 18.5772L61.1554 19.0825C60.0663 19.307 59.2579 19.6551 59.2579 20.6543C59.2579 21.5189 59.8979 22.0129 60.886 22.0129C62.267 22.0129 63.5806 21.2831 63.5806 19.9021V18.5772ZM56.3724 20.8003C56.3724 18.4986 58.1576 17.5105 60.4817 17.0614L63.5806 16.4439V16.253C63.5806 15.1864 63.0305 14.524 61.6607 14.524C60.5541 14.524 59.9249 14.9738 59.5986 15.8733C59.5364 16.0447 59.3565 16.1437 59.1779 16.1066L57.1493 15.686C56.9252 15.6396 56.7982 15.4031 56.8798 15.1892C57.5582 13.4113 59.2583 12.0538 61.773 12.0538C64.681 12.0538 66.4325 13.4124 66.4325 16.1408V21.0923C66.4325 21.6215 66.6179 21.8541 67.0731 21.8745C67.2725 21.8834 67.4318 22.0435 67.4318 22.2432V23.749C67.4318 23.9387 67.2874 24.0986 67.0985 24.1171C65.3284 24.2899 64.3064 23.8878 63.8726 22.9673C63.1203 23.7982 61.9077 24.2809 60.3695 24.2809C58.0902 24.2809 56.3724 22.8999 56.3724 20.8003Z" fill="black"/>
<path d="M69.9836 20.4218C70.1383 20.281 70.3799 20.2958 70.5134 20.4568C71.2987 21.4033 72.5554 22.0017 73.7753 22.0017C74.8757 22.0017 75.8637 21.6199 75.8637 20.6655C75.8637 19.7112 74.9309 19.6032 73.0567 19.2284C71.1695 18.851 69.0484 18.3638 69.0484 15.8376C69.0484 13.6257 70.9908 12.0538 73.7641 12.0538C75.6844 12.0538 77.4128 12.8119 78.3637 13.9112C78.4919 14.0594 78.4878 14.2801 78.3492 14.4187L77.0672 15.7006C76.9176 15.8503 76.6702 15.8463 76.5317 15.6862C75.8052 14.8463 74.7769 14.378 73.6406 14.378C72.5963 14.378 71.9115 14.8383 71.9115 15.5569C71.9115 16.3653 72.7311 16.5112 74.202 16.8144C76.2342 17.2411 78.7155 17.6902 78.7155 20.3736C78.7155 22.7989 76.4812 24.3259 73.7304 24.3259C71.7072 24.3259 69.6347 23.594 68.5056 22.2326C68.3814 22.0828 68.4023 21.8602 68.5462 21.7293L69.9836 20.4218Z" fill="black"/>
<path d="M80.5892 7.95559H82.7698C82.9737 7.95559 83.1391 8.12094 83.1391 8.32492V13.5134C83.8016 12.7387 84.8682 12.0538 86.384 12.0538C88.8542 12.0538 90.3475 13.7493 90.3475 16.2979V23.7095C90.3475 23.9135 90.1821 24.0789 89.9781 24.0789H87.7976C87.5936 24.0789 87.4282 23.9135 87.4282 23.7095V17.14C87.4282 15.7478 86.8668 14.7484 85.4521 14.7484C84.2957 14.7484 83.1391 15.5906 83.1391 17.2074V23.7095C83.1391 23.9135 82.9737 24.0789 82.7698 24.0789H80.5892C80.3853 24.0789 80.2199 23.9135 80.2199 23.7095V8.32492C80.2199 8.12094 80.3853 7.95559 80.5892 7.95559Z" fill="black"/>
<path d="M100.935 17.8474H105.752L103.327 11.3801L100.935 17.8474ZM105.224 8.19471L111.02 23.5793C111.111 23.8209 110.933 24.0789 110.675 24.0789H108.343C108.189 24.0789 108.051 23.9833 107.997 23.839L106.751 20.5084H99.9469L98.7114 23.838C98.6577 23.9828 98.5196 24.0789 98.3652 24.0789H96.0903C95.8323 24.0789 95.6538 23.8211 95.7446 23.5796L101.53 8.19492C101.584 8.05094 101.722 7.95559 101.876 7.95559H104.879C105.032 7.95559 105.17 8.05084 105.224 8.19471Z" fill="black"/>
<path d="M115.284 18.5323C115.284 20.6207 116.474 21.7996 118.057 21.7996C119.921 21.7996 120.92 20.3287 120.92 18.1842C120.92 16.0509 119.921 14.58 118.057 14.58C116.474 14.58 115.284 15.7365 115.284 17.8586V18.5323ZM115.351 22.8551V27.7291C115.351 27.933 115.186 28.0984 114.982 28.0984H112.801C112.597 28.0984 112.432 27.933 112.432 27.7291V12.6477C112.432 12.4437 112.597 12.2783 112.801 12.2783H114.982C115.186 12.2783 115.351 12.4437 115.351 12.6477V13.5134C116.07 12.6489 117.193 12.0538 118.697 12.0538C121.976 12.0538 123.862 14.8383 123.862 18.1842C123.862 21.5413 121.976 24.3259 118.697 24.3259C117.193 24.3259 116.07 23.7308 115.351 22.8551Z" fill="black"/>
<path d="M128.252 18.5323C128.252 20.6207 129.442 21.7996 131.025 21.7996C132.889 21.7996 133.888 20.3287 133.888 18.1842C133.888 16.0509 132.889 14.58 131.025 14.58C129.442 14.58 128.252 15.7365 128.252 17.8586V18.5323ZM128.319 22.8551V27.7291C128.319 27.933 128.154 28.0984 127.95 28.0984H125.769C125.565 28.0984 125.4 27.933 125.4 27.7291V12.6477C125.4 12.4437 125.565 12.2783 125.769 12.2783H127.95C128.154 12.2783 128.319 12.4437 128.319 12.6477V13.5134C129.038 12.6489 130.161 12.0538 131.665 12.0538C134.944 12.0538 136.83 14.8383 136.83 18.1842C136.83 21.5413 134.944 24.3259 131.665 24.3259C130.161 24.3259 129.038 23.7308 128.319 22.8551Z" fill="black"/>
</g>
<defs>
<clipPath id="clip0_3732_206">
<rect width="137" height="32" fill="white"/>
</clipPath>
</defs>
</svg>
