<?xml version="1.0" encoding="UTF-8" standalone="no"?>
<!-- Created with Inkscape (http://www.inkscape.org/) -->
<!-- ClipArt by Arvin61r58 (http://openclipart.org/user-detail/Arvin61r58) -->
<!-- ClipArt by Mahua Sarkar (https://openclipart.org/user-detail/Mahua%20Sarkar) -->
<!-- ClipArt by qubodup (https://openclipart.org/user-detail/qubodup) -->
<svg
   xmlns:dc="http://purl.org/dc/elements/1.1/"
   xmlns:cc="http://creativecommons.org/ns#"
   xmlns:rdf="http://www.w3.org/1999/02/22-rdf-syntax-ns#"
   xmlns:svg="http://www.w3.org/2000/svg"
   xmlns="http://www.w3.org/2000/svg"
   xmlns:xlink="http://www.w3.org/1999/xlink"
   version="1.1"
   id="Layer_1"
   x="0px"
   y="0px"
   width="565.21838"
   height="672.85785"
   viewBox="0 0 565.21838 672.85785"
   enable-background="new 0 0 500 500"
   xml:space="preserve"><title
   id="title4789">Party Frog</title><metadata
   id="metadata119"><rdf:RDF><cc:Work
       rdf:about=""><dc:format>image/svg+xml</dc:format><dc:type
         rdf:resource="http://purl.org/dc/dcmitype/StillImage" /><dc:title>Party Frog</dc:title><cc:license
         rdf:resource="http://creativecommons.org/publicdomain/zero/1.0/" /><dc:creator><cc:Agent><dc:title>Arvin61r58</dc:title></cc:Agent></dc:creator><dc:publisher><cc:Agent><dc:title>Openclipart.org</dc:title></cc:Agent></dc:publisher><dc:identifier>https://openclipart.org/</dc:identifier><dc:source>https://openclipart.org/user-detail/Arvin61r58</dc:source><dc:description>silly party frog</dc:description><dc:subject><rdf:Bag><rdf:li>frog</rdf:li><rdf:li>party</rdf:li><rdf:li>hat</rdf:li><rdf:li></rdf:li></rdf:Bag></dc:subject></cc:Work><cc:License
       rdf:about="http://creativecommons.org/publicdomain/zero/1.0/"><cc:permits
         rdf:resource="http://creativecommons.org/ns#Reproduction" /><cc:permits
         rdf:resource="http://creativecommons.org/ns#Distribution" /><cc:permits
         rdf:resource="http://creativecommons.org/ns#DerivativeWorks" /></cc:License></rdf:RDF></metadata><defs
   id="defs117"><linearGradient
     gradientUnits="userSpaceOnUse"
     y2="84.702148"
     x2="542.46875"
     y1="84.702148"
     x1="194.44141"
     id="linearGradient4861"
     xlink:href="#linearGradient4597" /><linearGradient
     id="linearGradient4597"><stop
       stop-color="#d10100"
       offset="0"
       id="stop4567" /><stop
       stop-color="#fb7f01"
       offset="0.071429"
       id="stop4569" /><stop
       stop-color="#fde202"
       offset="0.142857"
       id="stop4571" /><stop
       stop-color="#cee80a"
       offset="0.214286"
       id="stop4573" /><stop
       stop-color="#0166ae"
       offset="0.285714"
       id="stop4575" /><stop
       stop-color="#036dc6"
       offset="0.357143"
       id="stop4577" /><stop
       stop-color="#2d2376"
       offset="0.428571"
       id="stop4579" /><stop
       stop-color="#e50454"
       offset="0.5"
       id="stop4581" /><stop
       stop-color="#f30c01"
       offset="0.571429"
       id="stop4583" /><stop
       stop-color="#fead02"
       offset="0.642857"
       id="stop4585" /><stop
       stop-color="#fffb02"
       offset="0.714286"
       id="stop4587" /><stop
       stop-color="#027009"
       offset="0.785714"
       id="stop4589" /><stop
       stop-color="#50c206"
       offset="0.857143"
       id="stop4591" /><stop
       stop-color="#fcf402"
       offset="0.928571"
       id="stop4593" /><stop
       stop-color="#d90001"
       offset="1"
       id="stop4595" /></linearGradient></defs>










<g
   id="g4860"><title
     id="title4862">Party on dudes and dudets!</title><g
     style="stroke-width:1.34334588"
     id="layer1"
     transform="matrix(0.31339797,-0.15964679,0.14481747,0.28428696,-53.593077,108.73455)"><path
       id="path3755"
       style="fill:#93ffac;stroke:#3e3e3e;stroke-width:15.79640388"
       d="M 348.09,109.89 C 262.88,98.125 214.23,48.4 197.64,-34.63 l 52.461,-31.674 c 8.8349,68.313 24.711,132.98 108.88,162.33 z" /><path
       id="path3757"
       d="M 353.56,91.864 C 291.58,29.7 282.74,-40.746 320.51,-118.456 l 62.186,6.6459 c -35,60.969 -62.02,123.32 -11.73,199.13 z"
       style="fill:#feff93;stroke:#3e3e3e;stroke-width:16.12014961" /><path
       id="path3761"
       d="M 392.11,86.165 C 444.91,22.903 510,8.603 585.87,37.255 l -0.88537,58.696 c -59.98,-27.485 -120.58,-47.403 -187.14,6.089 z"
       style="fill:#feff93;stroke:#3e3e3e;stroke-width:15.13144875" /><path
       id="path3801"
       d="m 400.56,103.66 c 70.409,-8.8186 119.79,20.415 150.74,83.029 l -35.039,36.44 c -21.63,-52.55 -48.08,-100.69 -121.42,-106.11 z"
       style="fill:#93ffac;stroke:#3e3e3e;stroke-width:13.03045368" /><path
       id="path3803"
       style="fill:#feff93;stroke:#3e3e3e;stroke-width:13.48450661"
       d="M 359.07,126.89 C 299.032,169.168 239.7,166.464 181,124.3003 l 14.3,-50.321 c 45.296,37.496 92.867,68.618 162.5,37.92 z" /><path
       id="path2985"
       style="fill:#93ffac;stroke:#3e3e3e;stroke-width:16.12014961"
       d="M 125.26,755.38 373.76,36.15 640.44,747.3 c -107.4,137.09 -420.62,139.89 -515.18,8.08 z" /><path
       id="rect3771"
       style="fill:#feff93;stroke:#3e3e3e;stroke-width:11.96571922;stroke-linejoin:round"
       d="M 420.09,159.69 C 372.48,222.106 321.929,282.48 268.47,340.85 L 218.782,484.73 C 300.63,404.487 375.842,318.06 444.902,225.95 L 420.09,159.7 Z m 58.29,155.4 C 387.96,435.38 284.78,547.59 162.44,647.72 L 127.53,748.75 C 280.69,644.3 406.28,524.42 506.59,390.38 Z m 58.188,155.19 c -100.47,122.36 -214.26,236.88 -348.91,339.13 20.15,11.4 42.82,20.53 67.09,27.37 122.94,-86.67 221.84,-187.56 308.31,-295.78 l -26.5,-70.719 z m 49.75,132.66 c -75.124,86.484 -154.65,170.39 -244.41,248.34 32.775,2.0765 66.335,0.70943 98.969,-4.0938 0.006,-0.005 0.0255,0.005 0.0312,0 61.02,-55.53 117.11,-115.25 170.56,-177.19 l -25.16,-67.06 z" /><path
       id="path3795"
       style="fill:#00b02d;fill-opacity:0.11946998;stroke-width:1.34334588"
       d="M 484.59,333.63 C 494.1758,607.16 312.47,752.65 129.47,760.96 228.776,887.08 534.58,882.4 640.44,747.272 Z" /><path
       id="path3799"
       d="M 125.26,755.38 373.76,36.15 640.44,747.3 c -107.4,137.09 -420.62,139.89 -515.18,8.08 z"
       style="fill:none;stroke:#3e3e3e;stroke-width:16.12014961" /><path
       id="path3759"
       style="fill:#93ffac;stroke:#3e3e3e;stroke-width:16.12014961"
       d="M 363.57,78.567 C 358,-9.04 405.6,-65.693 485.26,-99.173 l 42.351,46.018 c -66.518,22.736 -127.96,51.772 -140.18,141.92 z" /></g><g
     transform="translate(71.953403,180.95246)"
     id="g4680"><g
       id="g8">
	<path
   style="fill:#73bf44"
   d="m 308.754,213.385 c -20.492,32.787 -57.775,56.026 -92.202,69.959 -32.787,13.115 -64.355,14.467 -98.782,14.467 l 1.571,-2.172 c 1.639,30.328 -11.476,59.836 -9.017,90.164 1.64,18.032 11.476,37.705 28.688,44.263 16.394,6.558 35.246,6.558 53.279,6.558 10.656,0 82.773,-23.091 92.609,-29.648 14.263,-4.559 97.022,-56.471 91.816,-53.139 28.688,-11.477 51.641,-64.754 32.787,-91.803 -14.754,-19.673 -42.623,-27.049 -64.754,-35.246 -12.296,-4.918 -25.41,-4.918 -36.886,-10.656"
   id="path2" />
	<g
   id="g6">
		<path
   d="m 306.596,212.124 c -18.178,28.659 -47.222,48.649 -77.429,62.992 -17.003,8.073 -34.769,13.688 -53.343,16.747 -19.15,3.15 -38.691,3.435 -58.053,3.449 0.72,1.254 1.439,2.508 2.159,3.762 0.524,-0.725 1.047,-1.448 1.571,-2.172 -1.553,-0.422 -3.106,-0.842 -4.659,-1.262 1.355,30.465 -11.182,59.653 -9.017,90.164 0.786,11.065 4.816,22.111 11.144,31.188 6.833,9.803 16.458,15.104 27.767,18.246 14.135,3.926 29.204,3.87 43.751,3.884 5.251,0.005 10.341,-1.309 15.409,-2.584 17.107,-4.304 33.974,-9.771 50.647,-15.506 21.911,-7.539 41.771,-17.302 61.791,-28.949 20.155,-11.727 39.62,-24.721 59.879,-36.241 -1.141,-0.3 -2.28,-0.599 -3.421,-0.897 l 0.001,0.002 c 0.299,-1.141 0.598,-2.28 0.896,-3.42 -0.076,0.052 -0.154,0.101 -0.232,0.15 -2.271,1.457 -0.796,5.704 1.927,4.569 15.21,-6.341 25.932,-20.259 32.937,-34.733 7.389,-15.27 11.337,-33.775 6.346,-50.367 -5.393,-17.924 -24.021,-28.436 -40.146,-35.239 -9.774,-4.125 -19.854,-7.435 -29.818,-11.058 -12.249,-4.454 -25.771,-5.271 -37.571,-10.876 -2.896,-1.375 -5.435,2.935 -2.522,4.317 9.744,4.628 20.385,5.885 30.71,8.649 9.552,2.557 19.012,6.529 28.281,9.974 16.688,6.202 36.971,14.897 44.944,32.055 6.865,14.769 2.692,33.47 -3.471,47.691 -6.071,14.012 -16.473,28.702 -31.018,34.766 0.644,1.522 1.285,3.048 1.928,4.569 0.077,-0.051 0.155,-0.1 0.231,-0.15 1.05,-0.721 1.721,-2.246 0.897,-3.421 l -0.001,-10e-4 c -0.788,-1.125 -2.161,-1.611 -3.42,-0.896 -22.546,12.82 -44.18,27.281 -66.698,40.181 -9.271,5.31 -18.739,10.044 -28.299,14.722 -14.096,6.898 -29.709,11.37 -44.62,16.111 -12.698,4.037 -25.53,8.101 -38.586,10.832 -7.038,1.473 -14.422,0.782 -21.557,0.576 -12.896,-0.373 -26.296,-1.755 -38.181,-7.119 -20.708,-9.348 -26.065,-35.197 -25.032,-55.523 1.294,-25.478 10.268,-49.961 9.125,-75.664 -0.116,-2.608 -3.222,-3.248 -4.659,-1.262 -0.524,0.725 -1.047,1.448 -1.571,2.172 -1.144,1.581 0.403,3.764 2.159,3.762 19.282,-0.015 38.541,-0.525 57.643,-3.355 19.139,-2.835 37.35,-8.79 54.884,-16.87 31.526,-14.528 61.78,-35.741 80.615,-65.438 1.732,-2.735 -2.598,-5.241 -4.318,-2.527 z"
   id="path4" />
	</g>
</g><g
       id="g80">
	<g
   id="g18">
		<g
   id="g16">
			<path
   style="fill:#73bf44"
   d="m 139.833,438.549 c 7.239,-54.287 -18.93,-99.885 -51.639,-104.918 -18.853,-3.277 -22.131,22.951 -22.131,37.705 0.82,17.213 9.836,35.246 18.033,50.819 4.099,7.377 12.295,20.492 8.197,29.509 -4.098,7.377 -16.394,10.655 -23.771,12.295 -5.738,1.639 -27.049,1.639 -28.688,8.196 -4.918,15.574 27.869,6.558 33.606,5.737 -1.639,7.378 -0.819,11.476 8.197,11.476 9.017,0 13.115,-5.737 18.853,-11.476 11.475,-10.655 38.524,-22.13 39.343,-39.343"
   id="path10" />
			<g
   id="g14">
				<path
   d="m 142.333,438.549 c 3.123,-24.555 0.107,-49.97 -11.18,-72.191 -8.324,-16.387 -22.636,-31.356 -41.274,-34.967 -19.659,-3.807 -24.951,17.925 -26.079,33.039 -1.959,26.23 13.783,47.813 24.209,70.485 1.727,3.754 2.911,7.797 2.884,11.944 -0.029,4.42 -3.495,7.122 -6.954,9.186 -5.299,3.162 -11.907,4.794 -17.94,5.904 -7.917,1.458 -23.549,0.068 -28.129,8.383 -4.591,8.33 3.911,12.926 10.839,13.358 8.606,0.537 16.987,-2.083 25.396,-3.387 -1.025,-1.024 -2.05,-2.051 -3.075,-3.076 -1.688,8.116 0.208,13.813 9.18,14.603 11.168,0.982 16.74,-7.844 24.321,-14.137 13.072,-10.85 36.261,-19.619 37.802,-39.144 0.254,-3.217 -4.748,-3.191 -5,0 -1.132,14.343 -19.081,23.313 -29.49,30.519 -5.899,4.084 -10.535,8.979 -15.834,13.746 -3.756,3.378 -8.605,4.618 -13.56,3.808 -4.237,-0.694 -3.247,-4.948 -2.599,-8.063 0.416,-2.001 -1.16,-3.373 -3.075,-3.075 -6.285,0.975 -12.4,2.588 -18.766,3.104 -3.274,0.268 -6.667,0.316 -9.825,-0.687 -3.034,-0.963 -3.055,-4.862 -0.577,-6.49 6.62,-4.352 16.858,-3.376 24.412,-4.768 8.501,-1.564 19.651,-4.556 25.121,-11.806 6.476,-8.583 0.434,-20.562 -3.939,-28.676 C 82.453,413.64 75.716,401.137 71.523,387.473 68.155,376.497 67.91,365.406 70.171,354.21 c 1.702,-8.423 5.714,-18.558 15.792,-18.338 18.389,0.399 33.121,18.271 40.873,33.007 11.132,21.162 13.476,46.248 10.498,69.668 -0.406,3.194 4.599,3.155 4.999,0.002 z"
   id="path12" />
			</g>
		</g>
	</g>
	<g
   id="g52">
		<g
   id="g26">
			<path
   style="fill:#73bf44"
   d="m 234.72,32.677 c 1.695,1.695 2.966,2.301 3.813,4.843 5.085,8.475 7.627,14.407 9.322,23.729 3.39,16.949 11.017,-2.542 16.102,-9.322 16.949,-19.492 48.305,-33.898 66.949,-9.322 8.475,10.169 15.254,22.034 16.102,35.593 0.849,22.034 -4.236,44.916 -7.627,66.949 -5.085,35.593 -23.097,82.818 -52.758,104.853 -30.51,23.729 -63.344,40.063 -102.327,47.689 -29.661,5.084 -58.475,1.694 -88.135,-3.391 C 71.584,289.213 41.924,282.435 21.584,267.181 -4.687,247.688 22.432,222.264 36.838,206.162 28.363,178.196 -1.298,112.942 27.516,93.451 45.312,80.739 97.855,80.739 108.024,104.468 l 0.729,-0.633 c 3.67,-6.587 14.667,-11.539 20.492,-16.394 l 2.508,0.925 c -9.322,-9.322 -1.695,-31.356 3.39,-40.678 6.779,-11.017 15.254,-20.339 25.424,-27.966 12.712,-8.475 26.271,-11.017 40.678,-5.932 12.712,4.237 30.509,11.017 37.288,23.729"
   id="path20" />
			<g
   id="g24">
				<path
   d="m 232.952,34.445 c 4.504,4.245 7.429,10.93 9.639,16.684 2.084,5.424 2.057,11.801 4.979,16.846 4.297,7.417 11.065,-2.656 13.241,-6.205 2.373,-3.872 4.405,-7.643 7.562,-10.956 4.174,-4.383 8.969,-8.119 14.106,-11.3 9.418,-5.833 20.892,-9.278 31.819,-6.15 12.367,3.54 20.967,17.597 26.055,28.521 6.617,14.208 4.345,31.017 2.438,46.046 -3.363,26.523 -7.47,53.661 -16.669,78.861 -8.323,22.802 -21.07,46.154 -40.763,61.05 -22.221,16.809 -45.93,30.731 -72.408,39.715 -14.281,4.846 -29.029,8.274 -44.064,9.553 -15.904,1.353 -31.932,0.334 -47.746,-1.558 -27.824,-3.327 -57.139,-8.903 -82.58,-21.081 -10.713,-5.127 -25.152,-12.785 -25.494,-26.254 -0.286,-11.284 9.159,-21.91 16.076,-29.833 3.051,-3.495 7.509,-6.959 9.851,-10.958 1.396,-2.382 -1.772,-8.215 -2.583,-10.588 -3.128,-9.149 -6.417,-18.24 -9.368,-27.449 -5.871,-18.32 -12.749,-40.034 -7.88,-59.321 4.55,-18.021 24.455,-21.911 40.532,-22.537 15.51,-0.604 38.83,2.043 46.168,18.2 0.71,1.563 2.822,1.466 3.926,0.506 1.162,-1.009 1.83,-2.319 2.833,-3.492 1.911,-2.234 4.429,-3.943 6.829,-5.597 3.856,-2.658 7.896,-5.005 11.559,-7.938 -0.811,0.214 -1.622,0.429 -2.432,0.643 0.836,0.309 1.672,0.617 2.508,0.925 2.498,0.921 3.998,-2.47 2.432,-4.178 -7.758,-8.469 -2.334,-23.994 1.567,-33.097 5.389,-12.573 16,-23.429 26.741,-31.621 12.687,-9.677 27.993,-9.431 42.332,-4.459 11.967,4.149 25.663,9.81 32.213,21.359 1.59,2.804 5.91,0.285 4.317,-2.523 -7.05,-12.431 -21.113,-18.568 -33.964,-23.219 -7.64,-2.765 -15.126,-4.711 -23.313,-4.234 -8.697,0.506 -16.886,4.086 -24.109,8.76 -12.653,8.186 -23.995,22.283 -29.684,36.153 -4.426,10.79 -8.485,26.756 0.365,36.417 0.811,-1.393 1.622,-2.786 2.432,-4.178 -1.149,-0.424 -2.571,-1.273 -3.837,-0.925 -2.622,0.721 -5.744,3.943 -8.078,5.451 -2.948,1.904 -5.832,3.864 -8.573,6.057 -2.241,1.792 -3.579,4.342 -5.673,6.162 1.309,0.168 2.618,0.337 3.926,0.506 C 103.125,87.676 83.063,83.486 67.752,82.605 52.479,81.726 32.708,83.684 21.47,95.345 c -12.198,12.659 -9.319,33.934 -6.212,49.485 3.906,19.553 11.277,38.158 17.571,57.009 0.554,1.657 1.083,3.321 1.595,4.992 0.214,-0.811 0.429,-1.622 0.643,-2.432 -11.926,13.263 -33.367,32.456 -25.24,52.527 4.311,10.646 16.483,17.055 26.209,21.864 11.667,5.771 24.245,9.604 36.818,12.823 28.636,7.33 58.761,11.938 88.368,10.947 28.104,-0.938 55.667,-9.416 80.872,-21.572 12.273,-5.92 23.938,-13.045 35.077,-20.875 9.826,-6.906 19.127,-14.201 26.89,-23.422 15.411,-18.308 25.309,-41.161 31.915,-63.973 3.439,-11.875 5.28,-23.962 7.304,-36.13 2.509,-15.089 5.218,-30.158 6.104,-45.452 0.823,-14.218 -1.246,-26.709 -8.567,-39.058 -5.729,-9.662 -13.288,-19.062 -24.029,-23.15 -18.935,-7.207 -40.261,6.073 -52.856,19.301 -2.849,2.991 -4.785,6.548 -6.875,10.08 -1.098,1.853 -2.22,3.717 -3.554,5.41 -1.558,1.974 -1.681,2.148 -2.553,-0.372 -1.942,-5.599 -2.446,-11.428 -4.902,-16.929 -2.472,-5.536 -5.126,-11.331 -9.561,-15.509 -2.344,-2.208 -5.886,1.321 -3.535,3.536 z"
   id="path22" />
			</g>
		</g>
		<g
   id="g34">
			<path
   style="fill:#73bf44"
   d="M 129.211,89.215"
   id="path28" />
			<g
   id="g32">
				<path
   d="m 129.211,91.715 c 3.224,0 3.224,-5 0,-5 -3.224,0 -3.224,5 0,5 z"
   id="path30" />
			</g>
		</g>
		<g
   id="g42">
			<path
   style="fill:#73bf44"
   d="M 36.838,206.164"
   id="path36" />
			<g
   id="g40">
				<path
   d="m 36.838,208.664 c 3.224,0 3.224,-5 0,-5 -3.224,0 -3.224,5 0,5 z"
   id="path38" />
			</g>
		</g>
		<g
   id="g50">
			<path
   style="fill:#73bf44"
   d="M 36.838,206.164"
   id="path44" />
			<g
   id="g48">
				<path
   d="m 36.838,208.664 c 3.224,0 3.224,-5 0,-5 -3.224,0 -3.224,5 0,5 z"
   id="path46" />
			</g>
		</g>
	</g>
	<g
   id="g62">
		<g
   id="g60">
			<path
   style="fill:#73bf44"
   d="m 344.752,226.787 c -9.836,-15.574 33.674,-44.263 49.248,-45.083 15.573,-0.82 29.508,20.492 35.246,32.787 9.836,22.131 8.196,46.721 9.016,70.491 0.82,19.672 4.1,37.705 21.313,48.36 8.197,4.099 18.033,4.099 25.41,9.017 10.655,7.377 4.099,13.936 -4.918,17.214 -6.559,1.64 -13.114,1.64 -19.673,2.459 0,9.017 20.491,17.214 4.1,23.771 -12.296,4.918 -20.492,-5.736 -25.41,-13.935 -10.656,-16.394 -29.508,-28.013 -33.606,-46.864"
   id="path54" />
			<g
   id="g58">
				<path
   d="m 346.91,225.525 c -3.702,-6.358 2.923,-13.817 7.031,-18.143 6.463,-6.803 14.437,-12.22 22.619,-16.728 6.662,-3.67 14.745,-7.807 22.524,-5.871 10.95,2.726 18.929,14.777 24.271,23.853 14.978,25.449 10.627,55.507 12.85,83.636 0.854,10.832 3.145,21.701 9.168,30.905 2.767,4.226 6.431,7.673 10.458,10.671 5.299,3.946 12.165,5.051 18.408,6.719 5.637,1.506 19.399,7.254 10.633,13.812 -6.735,5.039 -16.516,4.24 -24.48,5.153 -1.28,0.146 -2.596,1.027 -2.5,2.5 0.448,6.883 6.679,10.662 9.936,16.154 2.728,4.603 -7.607,6.366 -10.229,6.342 -5.455,-0.051 -9.965,-4.857 -13.008,-8.854 -2.846,-3.736 -5.157,-7.822 -8.077,-11.521 -3.38,-4.282 -7.193,-8.221 -10.917,-12.201 -7.585,-8.108 -15.064,-16.542 -17.711,-27.613 -0.75,-3.135 -5.57,-1.805 -4.821,1.33 2.969,12.419 11.521,21.827 20.015,30.906 4.928,5.268 9.83,10.537 13.845,16.555 3.011,4.516 5.87,9.141 10.335,12.406 3.939,2.881 8.708,4.66 13.647,3.806 4.234,-0.731 10.16,-2.726 11.932,-7.126 3.356,-8.331 -9.461,-12.763 -9.944,-20.184 -0.833,0.833 -1.667,1.667 -2.5,2.5 10.393,-1.191 25.584,-0.161 31.667,-10.768 5.866,-10.229 -11.271,-16.625 -18.032,-18.432 -6.882,-1.837 -12.979,-3.327 -18.512,-8.088 -4.76,-4.098 -8.096,-9.555 -10.336,-15.366 -4.566,-11.851 -4.456,-25.138 -4.669,-37.638 -0.247,-14.547 -0.469,-29.104 -3.412,-43.407 -2.435,-11.837 -7.483,-22.675 -14.45,-32.493 -5.755,-8.11 -13.4,-16.18 -23.367,-18.661 -7.039,-1.752 -14.316,1.366 -20.578,4.281 -10.679,4.972 -20.887,12.084 -29.006,20.632 -5.687,5.985 -11.915,15.194 -7.104,23.455 1.619,2.786 5.94,0.27 4.314,-2.522 z"
   id="path56" />
			</g>
		</g>
	</g>
	<g
   id="g70">
		<path
   style="fill:#73bf44"
   d="m 303.768,300.023 c 7.377,5.737 11.477,27.05 14.756,36.065 4.918,11.476 10.654,22.951 14.754,35.246 2.459,9.836 4.099,19.672 2.459,30.328 -0.82,6.557 -6.559,18.032 -4.918,24.59 3.277,12.295 18.031,-4.099 19.672,-11.476 0.818,-5.737 -3.278,-21.313 2.459,-24.59 6.558,-4.1 16.394,18.031 25.41,18.853 15.572,0.819 -2.459,-22.951 -7.377,-27.869 -2.459,-2.459 -5.738,-3.278 -7.378,-5.737 46.057,-7.084 36.953,4.631 40.647,-7.316 -5.737,-10.656 -23.435,-8.258 -32.451,-12.355 -10.655,-4.098 -12.295,-12.295 -16.394,-22.131 -6.559,-16.395 -20.492,-29.508 -24.59,-45.9"
   id="path64" />
		<g
   id="g68">
			<path
   d="m 302,301.792 c 7.42,6.306 9.402,19.172 11.961,28.073 3.673,12.777 10.339,24.501 15.055,36.914 5.17,13.606 6.52,28.529 2.168,42.489 -1.863,5.982 -7.063,19.948 1.643,23.432 6.751,2.701 13.529,-5.756 16.808,-10.446 5.206,-7.449 2.638,-15.158 2.707,-23.646 0.018,-1.93 0.087,-5.009 1.87,-6.261 1.058,-0.744 2.89,1.063 3.581,1.658 3.429,2.949 6.148,6.762 9.17,10.107 4.102,4.539 11.49,10.704 17.713,5.813 5.579,-4.384 0.349,-13.364 -2.327,-17.848 -2.062,-3.453 -4.498,-6.695 -7.042,-9.807 -2.855,-3.496 -7.153,-5.244 -9.934,-8.607 -0.367,1.393 -0.735,2.785 -1.103,4.179 12.515,-1.886 24.563,-2.737 37.113,-1.545 1.983,0.188 3.376,-0.942 4.022,-2.747 1.188,-3.318 1.861,-6.225 -0.641,-9.107 -5.103,-5.881 -13.039,-7.17 -20.345,-8.313 -9.41,-1.469 -17.569,-3.584 -22.273,-12.684 -2.078,-4.021 -3.354,-8.434 -5.196,-12.563 -2.194,-4.914 -4.881,-9.523 -7.765,-14.063 -6.06,-9.541 -12.974,-18.683 -15.957,-29.762 -0.839,-3.108 -5.662,-1.787 -4.822,1.33 2.525,9.377 7.665,17.518 12.943,25.561 5.662,8.627 10.403,17.154 14.194,26.765 2.826,7.167 6.476,13.129 13.596,16.618 6.979,3.418 15.007,3.411 22.441,5.23 3.811,0.933 7.557,2.562 9.919,5.819 0.237,-0.604 0.258,-0.603 0.062,0.007 -0.117,0.404 -0.224,0.813 -0.327,1.219 -0.135,0.52 -0.253,1.041 -0.374,1.563 -0.306,1.306 -0.613,1.079 0.389,0.317 0.69,-0.522 0.313,-0.153 -0.454,-0.26 -12.593,-1.754 -25.371,-0.093 -37.855,1.789 -2.049,0.309 -2.151,2.908 -1.104,4.178 2.659,3.221 6.684,4.801 9.438,8.018 2.729,3.184 5.128,6.661 7.273,10.258 1.563,2.618 4.001,6.514 3.479,9.729 -0.72,4.416 -8.16,-1.246 -9.311,-2.327 -5.033,-4.736 -9.603,-14 -16.867,-15.569 -8.605,-1.858 -8.673,10.935 -8.378,16.069 0.22,3.812 1.442,8.424 0.188,12.125 -1.401,4.13 -4.9,7.87 -8.158,10.623 -4.561,3.854 -6.75,0.923 -6.38,-4.317 0.418,-5.908 3.255,-11.657 4.645,-17.374 6.766,-27.826 -12.045,-51.761 -19.313,-77.052 -2.708,-9.42 -5.038,-22.433 -12.915,-29.125 -2.443,-2.07 -5.998,1.449 -3.537,3.54 z"
   id="path66" />
		</g>
	</g>
	<g
   id="g78">
		<path
   style="fill:#73bf44"
   d="m 195.571,355.762 c 0,15.574 9.836,32.787 17.213,45.902 6.558,13.114 12.295,25.409 21.312,36.885 6.558,7.377 6.558,7.377 2.459,15.574 -2.459,4.098 -10.656,13.934 -3.278,17.213 9.836,4.098 21.312,-23.771 27.049,-27.869 4.099,4.1 13.115,25.41 22.951,17.213 8.195,-7.377 -8.197,-25.408 -9.836,-31.146 5.736,-1.639 31.967,3.279 31.967,-8.196 0,-10.656 -36.065,-10.656 -44.264,-13.935 -10.654,-3.278 -11.475,-9.018 -15.573,-18.033 -6.558,-12.295 -16.394,-23.771 -21.312,-36.064"
   id="path72" />
		<g
   id="g76">
			<path
   d="m 193.071,355.762 c 0.409,19.771 12.288,36.577 20.784,53.653 4.731,9.508 9.68,18.872 15.894,27.51 1.907,2.65 6.884,6.5 7.125,9.842 0.215,2.976 -2.886,6.76 -4.472,9.145 -2.645,3.976 -6.969,10.7 -3.234,15.315 3.165,3.912 8.077,3.53 11.941,0.981 4.779,-3.152 8.152,-8.554 11.243,-13.234 2.924,-4.427 5.494,-10.399 9.74,-13.738 -1.179,0 -2.355,0 -3.535,0 6.139,6.617 13.885,26.713 25.98,17.604 11.587,-8.726 -5.825,-25.412 -8.688,-33.971 -0.582,1.024 -1.164,2.051 -1.746,3.076 9.604,-2.308 22.211,3.061 30.646,-3.989 3.214,-2.687 4.236,-7.413 1.689,-10.907 -2.85,-3.909 -8.379,-5.373 -12.813,-6.499 -11.695,-2.972 -25.514,-1.694 -36.332,-7.452 -3.251,-1.729 -5.041,-4.836 -6.552,-8.045 -2.099,-4.454 -3.96,-8.797 -6.53,-13.03 -5.916,-9.748 -13.124,-18.789 -17.545,-29.383 -1.223,-2.93 -6.063,-1.646 -4.821,1.33 3.677,8.809 8.987,16.641 14.217,24.58 2.596,3.939 5.086,7.938 7.347,12.082 1.726,3.163 2.742,6.684 4.495,9.852 5.62,10.155 18.551,10.801 28.732,12.174 3.195,0.431 31.134,3.686 25.595,10.821 -2.974,3.832 -11.033,3.238 -15.268,3.27 -4.623,0.032 -9.646,-0.715 -14.191,0.376 -1.271,0.306 -2.168,1.813 -1.746,3.076 1.346,4.02 4.119,7.569 6.318,11.146 2.479,4.031 7.422,11.081 5.301,16.081 -4.625,10.897 -17.861,-12.823 -20.556,-15.727 -1.007,-1.086 -2.498,-0.815 -3.535,0 -2.987,2.348 -5.005,6.137 -7.016,9.282 -3.152,4.929 -6.194,9.984 -10.144,14.33 -1.527,1.681 -3.298,3.281 -5.53,3.889 -4.67,1.268 -2.424,-5.131 -1.495,-6.932 2.437,-4.726 6.947,-9.189 7.434,-14.73 0.536,-6.089 -6.712,-11.609 -9.806,-16.059 -5.374,-7.727 -9.633,-16.188 -13.828,-24.59 -8.087,-16.195 -19.713,-32.369 -20.101,-51.129 -0.063,-3.22 -5.064,-3.227 -4.997,0 z"
   id="path74" />
		</g>
	</g>
</g><path
       style="stroke:#000000;stroke-width:4;stroke-miterlimit:10"
       stroke-miterlimit="10"
       d="m 179.226,38.005 c 17.343,-6.313 38.17,7.166 46.518,30.103 8.348,22.938 -23.9,-23.919 -41.244,-17.607 -17.344,6.312 -13.214,63.403 -21.562,40.466 -8.348,-22.939 -1.056,-46.65 16.288,-52.962 z"
       id="path82" /><g
       id="g88">
	<g
   id="g86">
		<path
   d="m 344.752,229.287 c 20.979,1.681 41.015,14.449 54.581,30.037 15.91,18.279 17.331,44.279 3.983,64.418 -1.787,2.695 2.546,5.197 4.317,2.523 13.635,-20.572 13.098,-47.529 -2.069,-67.132 -14.289,-18.466 -37.245,-32.959 -60.813,-34.848 -3.215,-0.256 -3.19,4.746 0.001,5.002 z"
   id="path84" />
	</g>
</g><ellipse
       style="fill:#ffffff;stroke:#000000;stroke-width:4;stroke-miterlimit:10"
       transform="matrix(-0.4296,-0.903,0.903,-0.4296,-37.0557,281.1117)"
       stroke-miterlimit="10"
       cx="70.254997"
       cy="152.259"
       rx="44.195999"
       ry="33.417"
       id="ellipse90" /><g
       id="g96">
	<g
   id="g94">
		<path
   d="m 75.926,238.262 c 0.646,5.794 -0.973,12.728 -5.005,17.083 -2.187,2.361 1.341,5.906 3.535,3.535 4.889,-5.279 7.262,-13.512 6.47,-20.62 -0.353,-3.165 -5.357,-3.2 -5,0.002 z"
   id="path92" />
	</g>
</g><g
       id="g102">
	<g
   id="g100">
		<path
   d="m 295.975,73.95 c 5.387,7.642 12.896,9.389 21.832,9.435 3.225,0.017 3.224,-4.984 0,-5 -6.964,-0.035 -13.23,-0.882 -17.514,-6.958 -1.842,-2.613 -6.181,-0.119 -4.318,2.523 z"
   id="path98" />
	</g>
</g><ellipse
       style="stroke:#000000;stroke-width:4;stroke-miterlimit:10"
       transform="matrix(-0.4296,-0.903,0.903,-0.4296,-30.9052,317.7209)"
       stroke-miterlimit="10"
       cx="84.891998"
       cy="168.621"
       rx="22.601999"
       ry="17.636999"
       id="ellipse104" /><path
       style="fill:#ff0031"
       d="m 311.042,209.501 c -7.009,9.646 -26.759,7.246 -44.113,-5.363 -17.354,-12.608 1.711,-2.78 4.571,-18.138 3.163,-16.979 11.235,-23.752 20.81,-16.795 17.355,12.609 25.741,30.65 18.732,40.296 z"
       id="path106" /><g
       id="g112">
	<g
   id="g110">
		<path
   d="m 265.338,197.521 c 8.15,-12.26 16.035,-24.621 22.844,-37.689 6.664,-12.792 11.299,-26.061 16.135,-39.593 2.156,-6.039 4.389,-11.885 5.34,-18.265 1.104,-7.401 0.102,-14.924 1.484,-22.361 0.117,-0.514 0.234,-1.028 0.352,-1.542 0.713,-3.14 -4.107,-4.473 -4.822,-1.329 -1.313,5.787 -1.615,11.67 -1.707,17.588 -0.113,7.228 -1.418,13.488 -3.877,20.269 -4.865,13.414 -9.271,26.736 -15.625,39.567 -5.996,12.114 -13.076,23.67 -20.502,34.952 -7.049,10.711 -14.561,20.575 -24.27,29.028 -18.709,16.287 -43.75,27.045 -67.723,32.593 -14.634,3.386 -29.25,2.313 -44.004,0.435 -15.587,-1.984 -30.993,-5.318 -46.265,-8.964 -3.136,-0.749 -4.466,4.072 -1.331,4.821 v 0 c 28.657,6.843 60.165,14.621 89.644,9.212 24.712,-4.534 50.117,-16.275 69.843,-31.775"
   id="path108" />
	</g>
</g></g><path
     style="font-style:normal;font-variant:normal;font-weight:normal;font-stretch:normal;font-size:medium;line-height:1;font-family:Candy;-inkscape-font-specification:'Candy, Normal';font-variant-ligatures:normal;font-variant-caps:normal;font-variant-numeric:normal;font-feature-settings:normal;text-align:center;letter-spacing:0.75px;writing-mode:lr-tb;text-anchor:middle;fill:url(#linearGradient4861);fill-opacity:1.0;fill-rule:evenodd;stroke:none;stroke-width:1;stroke-linecap:square;stroke-linejoin:miter;stroke-miterlimit:4;stroke-dasharray:none;stroke-opacity:1"
     d="M 212.07227 6.3554688 C 208.8431 6.3554688 205.80426 7.2328561 202.95703 8.9863281 C 200.30078 10.618273 198.18338 12.78776 196.60352 15.496094 C 195.16254 17.961371 194.44141 20.471354 194.44141 23.023438 C 194.44141 25.124132 195.11046 26.884982 196.44727 28.308594 C 197.97504 29.923176 199.85807 30.730469 202.09766 30.730469 C 204.40668 30.730469 206.57812 29.750868 208.60938 27.789062 C 210.38021 26.105035 211.26563 24.646702 211.26562 23.414062 C 211.26563 23.06684 211.16949 22.780382 210.97852 22.554688 C 210.8049 22.311632 210.57856 22.189453 210.30078 22.189453 C 210.09245 22.189453 209.73784 22.285591 209.23438 22.476562 C 208.95659 22.580729 208.6862 22.632812 208.42578 22.632812 C 207.93967 22.632812 207.51498 22.440538 207.15039 22.058594 C 206.78581 21.659288 206.60352 21.200521 206.60352 20.679688 C 206.60352 19.690104 207.06423 18.656467 207.98438 17.580078 C 209.02604 16.3648 210.17991 15.757813 211.44727 15.757812 C 212.17643 15.757813 212.80143 16.018229 213.32227 16.539062 C 213.86046 17.042535 214.12891 17.649523 214.12891 18.361328 C 214.12891 19.038411 213.85243 20.140191 213.29688 21.667969 C 212.75868 23.195746 212.06358 24.8023 211.21289 26.486328 C 209.84136 29.212022 209.00803 30.990885 208.71289 31.824219 C 208.41775 32.657552 208.26953 33.613064 208.26953 34.689453 C 208.26953 36.026258 208.70421 37.15408 209.57227 38.074219 C 210.64865 39.220052 212.07292 39.792969 213.84375 39.792969 C 215.37153 39.792969 216.91602 39.412326 218.47852 38.648438 C 220.04102 37.884549 221.87196 36.608507 223.97266 34.820312 C 222.84418 37.389757 221.64627 39.499132 220.37891 41.148438 C 219.11155 42.780381 217.72331 44.030381 216.21289 44.898438 C 214.70248 45.783854 213.18403 46.226562 211.65625 46.226562 C 210.49306 46.226562 209.45942 45.861979 208.55664 45.132812 C 207.65387 44.421007 207.20312 43.577691 207.20312 42.605469 C 207.20312 42.240885 207.24523 41.96441 207.33203 41.773438 C 207.41884 41.582465 207.70529 41.121745 208.19141 40.392578 C 208.46919 39.975911 208.60937 39.603299 208.60938 39.273438 C 208.60937 38.735243 208.2869 38.300564 207.64453 37.970703 C 207.00217 37.640842 206.17881 37.476562 205.17188 37.476562 C 201.66493 37.476562 199.05078 38.87283 197.33203 41.667969 C 196.53342 43.004774 196.13477 44.429036 196.13477 45.939453 C 196.13477 48.491536 197.1684 50.739149 199.23438 52.683594 C 201.57812 54.871094 204.76324 55.964844 208.79102 55.964844 C 212.6799 55.964844 216.1875 55.037326 219.3125 53.179688 C 222.09028 51.547743 224.31988 49.402344 226.00391 46.746094 C 228.43446 42.961372 230.4056 37.726997 231.91602 31.042969 C 233.13129 25.643663 233.9566 22.14605 234.39062 20.548828 C 234.84202 18.951606 235.76953 16.105035 237.17578 12.007812 C 236.16884 12.164059 234.97092 12.268226 233.58203 12.320312 C 231.37717 12.372396 229.91081 12.771051 229.18164 13.517578 C 228.46983 14.264106 227.79275 16.06901 227.15039 18.933594 C 226.31706 22.735677 225.35351 25.610244 224.25977 27.554688 C 223.68685 28.544271 223.00976 29.33355 222.22852 29.923828 C 221.46462 30.496745 220.6914 30.783203 219.91016 30.783203 C 219.33724 30.783203 218.87847 30.618924 218.53125 30.289062 C 218.18403 29.959201 218.00977 29.524522 218.00977 28.986328 C 218.00977 28.118273 218.40842 26.798177 219.20703 25.027344 C 220.2487 22.753038 220.84765 21.372829 221.00391 20.886719 C 221.80251 18.438802 222.20313 16.391493 222.20312 14.742188 C 222.20312 12.537326 221.37782 10.652344 219.72852 9.0898438 C 217.80143 7.2669271 215.24935 6.3554688 212.07227 6.3554688 z M 508.93164 10.992188 C 507.78581 10.992188 506.56988 11.268663 505.28516 11.824219 C 504.00044 12.362413 502.82856 13.109592 501.76953 14.064453 C 502.56814 14.463759 502.96875 15.044705 502.96875 15.808594 C 502.96875 16.121094 502.89062 16.633898 502.73438 17.345703 L 496.58789 45.757812 C 497.82053 44.750868 499.01845 44.282118 500.18164 44.351562 L 502.00391 44.351562 C 504.06988 44.47309 505.40799 43.431423 506.01562 41.226562 L 507.31641 35.236328 C 507.62891 33.795355 508.02951 32.771701 508.51562 32.164062 C 509.00173 31.539063 509.64279 31.226562 510.44141 31.226562 C 510.87543 31.226562 511.23199 31.356771 511.50977 31.617188 C 511.78754 31.877604 511.92578 32.224175 511.92578 32.658203 C 511.92578 32.91862 511.8737 33.291233 511.76953 33.777344 L 510.51953 39.402344 C 510.43273 39.749566 510.39062 40.10612 510.39062 40.470703 C 510.39062 41.755425 510.86741 42.815104 511.82227 43.648438 C 512.79449 44.46441 514.02648 44.871094 515.51953 44.871094 C 517.72439 44.871094 519.82573 44.125868 521.82227 42.632812 C 523.43685 41.434896 524.24414 40.383247 524.24414 39.480469 C 524.24414 39.254775 524.15799 39.056424 523.98438 38.882812 C 523.82813 38.69184 523.64583 38.595703 523.4375 38.595703 C 523.21181 38.595703 522.75912 38.725911 522.08203 38.986328 C 521.78689 39.107855 521.48438 39.167969 521.17188 39.167969 C 520.70313 39.167969 520.30252 39.011719 519.97266 38.699219 C 519.66016 38.386719 519.50391 38.006076 519.50391 37.554688 C 519.50391 37.242188 519.59202 36.669271 519.76562 35.835938 L 521.14453 29.664062 C 521.28342 29.021702 521.35352 28.404731 521.35352 27.814453 C 521.35352 26.547092 520.86676 25.531467 519.89453 24.767578 C 519.00912 24.073133 517.85525 23.726562 516.43164 23.726562 C 515.25109 23.726562 514.23546 23.898871 513.38477 24.246094 C 512.55143 24.593316 511.17123 25.41862 509.24414 26.720703 L 511.90039 14.664062 C 511.95246 14.386285 511.97852 14.099826 511.97852 13.804688 C 511.97852 12.936632 511.70009 12.249566 511.14453 11.746094 C 510.60634 11.242622 509.86914 10.992188 508.93164 10.992188 z M 451.75977 11.017578 C 448.27019 11.017578 445.18729 12.249566 442.51367 14.714844 C 440.53451 16.520399 439.14627 18.647786 438.34766 21.095703 C 437.89627 22.432508 437.53971 23.265842 437.2793 23.595703 C 437.03624 23.925564 436.53342 24.185981 435.76953 24.376953 C 434.88411 24.620008 434.31923 25.245008 434.07617 26.251953 L 433.79102 27.632812 C 433.77368 27.719618 433.76562 27.813802 433.76562 27.917969 C 433.76562 28.942274 434.22439 29.455078 435.14453 29.455078 L 436.31641 29.455078 L 431.78516 50.496094 C 432.89627 49.471787 434.01606 48.950954 435.14453 48.933594 L 437.54102 48.933594 C 437.97504 48.933594 438.45182 48.821398 438.97266 48.595703 C 439.51086 48.38737 439.9375 48.126953 440.25 47.814453 C 440.75347 47.328342 441.13411 46.503038 441.39453 45.339844 L 444.88477 29.455078 L 449.36328 29.455078 C 449.91883 29.455078 450.38758 29.298828 450.76953 28.986328 C 451.15148 28.656467 451.40386 28.205729 451.52539 27.632812 L 451.8125 26.251953 C 451.86457 26.008898 451.88867 25.808594 451.88867 25.652344 C 451.88867 24.749566 451.32574 24.298828 450.19727 24.298828 L 446.00391 24.298828 L 446.91602 20.183594 C 447.29796 18.447482 447.74067 17.259549 448.24414 16.617188 C 448.76497 15.974827 449.64041 15.522135 450.87305 15.261719 C 450.45638 16.042969 450.24805 16.720052 450.24805 17.292969 C 450.24805 18.213107 450.58659 18.986328 451.26367 19.611328 C 451.94076 20.236328 452.78408 20.548828 453.79102 20.548828 C 454.93685 20.548828 455.92643 20.158203 456.75977 19.376953 C 457.73199 18.474175 458.2168 17.354383 458.2168 16.017578 C 458.2168 14.489801 457.5918 13.24783 456.3418 12.292969 C 455.23069 11.442274 453.70421 11.017578 451.75977 11.017578 z M 464.35938 13.699219 C 462.84895 13.71658 461.53689 14.195313 460.42578 15.132812 C 459.27995 16.105034 458.70703 17.198785 458.70703 18.414062 C 458.70703 19.507812 459.03754 20.367188 459.69727 20.992188 C 460.39171 21.65191 461.32921 21.980469 462.50977 21.980469 C 464.03754 21.980469 465.44379 21.477648 466.72852 20.470703 C 467.89171 19.567925 468.47266 18.500217 468.47266 17.267578 C 468.47266 16.260633 468.1441 15.445312 467.48438 14.820312 C 466.70312 14.073785 465.66145 13.699219 464.35938 13.699219 z M 367.17188 18.074219 C 366.00868 18.074219 363.73308 19.472439 360.34766 22.267578 C 358.38586 23.899523 357.12783 25.027344 356.57227 25.652344 C 356.03407 26.277344 355.76562 26.912327 355.76562 27.554688 C 355.76562 28.578994 356.39866 29.167969 357.66602 29.324219 C 357.45768 30.365885 357.11914 31.599826 356.65039 33.023438 C 355.92122 35.280382 355.47852 36.738715 355.32227 37.398438 C 355.16602 38.040799 355.08789 38.717882 355.08789 39.429688 C 355.08789 40.940104 355.68685 42.216146 356.88477 43.257812 C 358.06533 44.282118 359.59375 44.792969 361.46875 44.792969 C 363.98611 44.792969 366.2678 44.047743 368.31641 42.554688 C 370.0178 41.322049 370.86914 40.25434 370.86914 39.351562 C 370.86914 38.743924 370.57466 38.439453 369.98438 38.439453 C 369.68923 38.439453 369.29861 38.54362 368.8125 38.751953 C 367.92708 39.116536 367.20594 39.298828 366.65039 39.298828 C 365.05316 39.298828 364.25391 38.569661 364.25391 37.111328 C 364.25391 36.468967 364.35004 35.7398 364.54102 34.923828 C 364.87088 33.587022 365.07118 32.735677 365.14062 32.371094 C 365.50521 30.75651 365.73958 29.740885 365.84375 29.324219 L 368.62891 29.324219 C 369.49697 29.324219 370.11394 29.089844 370.47852 28.621094 C 370.99935 27.94401 371.25977 26.946398 371.25977 25.626953 C 371.25977 24.63737 370.7309 24.142578 369.67188 24.142578 L 367.06641 24.142578 C 367.17057 23.587023 367.50911 22.415148 368.08203 20.626953 C 368.29036 20.036675 368.39453 19.567925 368.39453 19.220703 C 368.39453 18.908203 368.2743 18.639757 368.03125 18.414062 C 367.78819 18.188368 367.50173 18.074219 367.17188 18.074219 z M 385.10938 18.074219 C 383.94618 18.074219 381.67058 19.472439 378.28516 22.267578 C 376.32336 23.899523 375.06533 25.027344 374.50977 25.652344 C 373.97157 26.277344 373.70312 26.912327 373.70312 27.554688 C 373.70312 28.578994 374.33616 29.167969 375.60352 29.324219 C 375.39518 30.365885 375.05664 31.599826 374.58789 33.023438 C 373.85872 35.280382 373.41602 36.738715 373.25977 37.398438 C 373.10352 38.040799 373.02539 38.717882 373.02539 39.429688 C 373.02539 40.940104 373.62435 42.216146 374.82227 43.257812 C 376.00283 44.282118 377.53125 44.792969 379.40625 44.792969 C 381.92361 44.792969 384.2053 44.047743 386.25391 42.554688 C 387.9553 41.322049 388.80664 40.25434 388.80664 39.351562 C 388.80664 38.743924 388.51216 38.439453 387.92188 38.439453 C 387.62673 38.439453 387.23611 38.54362 386.75 38.751953 C 385.86458 39.116536 385.14344 39.298828 384.58789 39.298828 C 382.99066 39.298828 382.19141 38.569661 382.19141 37.111328 C 382.19141 36.468967 382.28754 35.7398 382.47852 34.923828 C 382.80838 33.587022 383.00868 32.735677 383.07812 32.371094 C 383.44271 30.75651 383.67708 29.740885 383.78125 29.324219 L 386.56641 29.324219 C 387.43447 29.324219 388.05144 29.089844 388.41602 28.621094 C 388.93685 27.94401 389.19727 26.946398 389.19727 25.626953 C 389.19727 24.63737 388.6684 24.142578 387.60938 24.142578 L 385.00391 24.142578 C 385.10807 23.587023 385.44661 22.415148 386.01953 20.626953 C 386.22786 20.036675 386.33203 19.567925 386.33203 19.220703 C 386.33203 18.908203 386.2118 18.639757 385.96875 18.414062 C 385.72569 18.188368 385.43923 18.074219 385.10938 18.074219 z M 538.37891 18.074219 C 537.21571 18.074219 534.94206 19.472439 531.55664 22.267578 C 529.59483 23.899523 528.3368 25.027344 527.78125 25.652344 C 527.24306 26.277344 526.97266 26.912327 526.97266 27.554688 C 526.97266 28.578994 527.60764 29.167969 528.875 29.324219 C 528.66667 30.365885 528.32812 31.599826 527.85938 33.023438 C 527.13021 35.280382 526.6875 36.738715 526.53125 37.398438 C 526.375 38.040799 526.29687 38.717882 526.29688 39.429688 C 526.29687 40.940104 526.89584 42.216146 528.09375 43.257812 C 529.2743 44.282118 530.80078 44.792969 532.67578 44.792969 C 535.19315 44.792969 537.47678 44.047743 539.52539 42.554688 C 541.22678 41.322049 542.07812 40.25434 542.07812 39.351562 C 542.07812 38.743924 541.78168 38.439453 541.19141 38.439453 C 540.89627 38.439453 540.50564 38.54362 540.01953 38.751953 C 539.13412 39.116536 538.41493 39.298828 537.85938 39.298828 C 536.26215 39.298828 535.46289 38.569661 535.46289 37.111328 C 535.46289 36.468967 535.55903 35.7398 535.75 34.923828 C 536.07986 33.587022 536.27821 32.735677 536.34766 32.371094 C 536.71224 30.75651 536.94661 29.740885 537.05078 29.324219 L 539.83789 29.324219 C 540.70595 29.324219 541.32292 29.089844 541.6875 28.621094 C 542.20833 27.94401 542.46875 26.946398 542.46875 25.626953 C 542.46875 24.63737 541.93793 24.142578 540.87891 24.142578 L 538.27539 24.142578 C 538.37956 23.587023 538.7181 22.415148 539.29102 20.626953 C 539.49935 20.036675 539.60352 19.567925 539.60352 19.220703 C 539.60352 18.908203 539.48134 18.639757 539.23828 18.414062 C 538.99523 18.188368 538.70877 18.074219 538.37891 18.074219 z M 315.87891 23.751953 C 314.17752 23.751953 312.52083 24.246745 310.90625 25.236328 C 308.9618 26.434245 307.35525 28.118924 306.08789 30.289062 C 304.59483 32.858507 303.84766 35.444661 303.84766 38.048828 C 303.84766 39.854383 304.30034 41.450955 305.20312 42.839844 C 306.15798 44.280816 307.50217 45.001953 309.23828 45.001953 C 310.40147 45.001953 311.52127 44.663411 312.59766 43.986328 C 313.67405 43.291884 314.99414 42.075955 316.55664 40.339844 C 315.96636 42.509982 315.31532 44.116536 314.60352 45.158203 C 313.99588 46.04362 313.18858 46.772786 312.18164 47.345703 C 311.19205 47.91862 310.2105 48.205078 309.23828 48.205078 C 308.12717 48.205078 307.19965 47.76237 306.45312 46.876953 C 306.03646 46.390842 305.77604 45.713759 305.67188 44.845703 C 304.35243 45.540148 303.39691 46.277344 302.80664 47.058594 C 302.21636 47.857205 301.92188 48.812717 301.92188 49.923828 C 301.92188 51.364801 302.47678 52.596788 303.58789 53.621094 C 304.97678 54.905816 306.85178 55.548828 309.21289 55.548828 C 313.15386 55.548828 316.63542 53.994357 319.65625 50.886719 C 320.90625 49.601997 321.91189 48.195747 322.67578 46.667969 C 323.43967 45.157552 324.09071 43.25651 324.62891 40.964844 L 327.83203 27.214844 C 327.91884 26.85026 327.96289 26.511719 327.96289 26.199219 C 327.96289 25.504774 327.73655 24.94987 327.28516 24.533203 C 326.85113 24.099175 326.2882 23.882812 325.59375 23.882812 C 324.36112 23.882812 322.77257 24.593967 320.82812 26.017578 C 319.19618 24.507161 317.54557 23.751953 315.87891 23.751953 z M 463.44727 23.751953 C 461.22504 23.751953 458.85525 24.79362 456.33789 26.876953 C 457.17122 27.310981 457.58789 27.917969 457.58789 28.699219 C 457.58789 28.994357 457.50173 29.559245 457.32812 30.392578 L 455.45312 39.064453 C 455.34896 39.567925 455.29688 40.088758 455.29688 40.626953 C 455.29688 41.82487 455.76562 42.832466 456.70312 43.648438 C 457.65799 44.46441 458.83789 44.871094 460.24414 44.871094 C 462.32747 44.871094 464.43685 44.125868 466.57227 42.632812 C 468.22157 41.486979 469.04688 40.383247 469.04688 39.324219 C 469.04688 39.098525 468.96875 38.900174 468.8125 38.726562 C 468.67361 38.552951 468.49935 38.464844 468.29102 38.464844 C 468.06532 38.464844 467.62262 38.605034 466.96289 38.882812 C 466.65039 39.021701 466.32986 39.089844 466 39.089844 C 464.92361 39.089844 464.38477 38.508897 464.38477 37.345703 C 464.38477 36.876953 464.44488 36.382161 464.56641 35.861328 L 466.41602 27.423828 C 466.48546 27.076606 466.51953 26.738064 466.51953 26.408203 C 466.51953 25.592231 466.24305 24.949219 465.6875 24.480469 C 465.13195 23.994357 464.38477 23.751953 463.44727 23.751953 z M 483.12891 23.751953 C 481.42751 23.751953 479.77083 24.246745 478.15625 25.236328 C 476.2118 26.434245 474.60525 28.118924 473.33789 30.289062 C 471.84484 32.858507 471.09766 35.444661 471.09766 38.048828 C 471.09766 39.854383 471.55034 41.450955 472.45312 42.839844 C 473.40798 44.280816 474.75217 45.001953 476.48828 45.001953 C 477.65148 45.001953 478.77127 44.663411 479.84766 43.986328 C 480.92404 43.291884 482.24414 42.075955 483.80664 40.339844 C 483.21636 42.509982 482.56532 44.116536 481.85352 45.158203 C 481.24588 46.04362 480.43859 46.772786 479.43164 47.345703 C 478.44206 47.91862 477.46051 48.205078 476.48828 48.205078 C 475.37717 48.205078 474.44965 47.76237 473.70312 46.876953 C 473.28646 46.390842 473.02604 45.713759 472.92188 44.845703 C 471.60243 45.540148 470.64692 46.277344 470.05664 47.058594 C 469.46637 47.857205 469.17188 48.812717 469.17188 49.923828 C 469.17188 51.364801 469.72678 52.596788 470.83789 53.621094 C 472.22678 54.905816 474.10178 55.548828 476.46289 55.548828 C 480.40386 55.548828 483.88542 53.994357 486.90625 50.886719 C 488.15625 49.601997 489.16189 48.195747 489.92578 46.667969 C 490.68967 45.157552 491.34071 43.25651 491.87891 40.964844 L 495.08203 27.214844 C 495.16884 26.85026 495.21289 26.511719 495.21289 26.199219 C 495.21289 25.504774 494.98654 24.94987 494.53516 24.533203 C 494.10113 24.099175 493.5382 23.882812 492.84375 23.882812 C 491.61111 23.882812 490.02257 24.593967 488.07812 26.017578 C 486.44618 24.507161 484.79557 23.751953 483.12891 23.751953 z M 402.83789 23.804688 C 401.53581 23.804688 400.20768 24.151258 398.85352 24.845703 C 397.49935 25.540148 396.26736 26.511719 395.15625 27.761719 C 393.88889 29.167968 392.89931 30.774522 392.1875 32.580078 C 391.47569 34.385633 391.11914 36.200521 391.11914 38.023438 C 391.11914 39.898438 391.53581 41.442925 392.36914 42.658203 C 393.42817 44.238064 394.8164 45.027344 396.53516 45.027344 C 398.20182 45.027344 399.77431 44.324219 401.25 42.917969 C 401.94445 42.258247 402.97613 41.086372 404.34766 39.402344 C 404.31292 39.871094 404.29687 40.27973 404.29688 40.626953 C 404.29687 41.859592 404.70356 42.893229 405.51953 43.726562 C 406.3355 44.542534 407.35113 44.949219 408.56641 44.949219 C 411.18793 44.949219 413.63585 43.977647 415.91016 42.033203 C 417.0039 41.095703 417.55078 40.25434 417.55078 39.507812 C 417.55078 39.264757 417.46462 39.046441 417.29102 38.855469 C 417.1174 38.664497 416.9171 38.570312 416.69141 38.570312 C 416.44835 38.570312 416.03168 38.690538 415.44141 38.933594 C 415.07682 39.072483 414.72222 39.142578 414.375 39.142578 C 413.94097 39.142578 413.56641 39.004341 413.25391 38.726562 C 412.94141 38.448785 412.78516 38.118272 412.78516 37.736328 C 412.78516 37.389105 412.88932 36.756076 413.09766 35.835938 L 415.07812 26.980469 C 415.16493 26.581163 415.20703 26.234592 415.20703 25.939453 C 415.20703 25.140842 414.84245 24.559896 414.11328 24.195312 C 413.76606 24.021702 413.34939 23.933594 412.86328 23.933594 C 412.13411 23.933594 411.46701 24.073785 410.85938 24.351562 C 410.26909 24.629341 409.32162 25.228299 408.01953 26.148438 C 406.66536 24.585938 404.93858 23.804688 402.83789 23.804688 z M 249.51562 23.855469 C 247.32812 23.890191 245.31293 24.411024 243.47266 25.417969 C 241.45876 26.511719 239.82813 28.084202 238.57812 30.132812 C 237.46702 31.955729 236.91016 33.87283 236.91016 35.886719 C 236.91016 38.022135 237.43099 39.871094 238.47266 41.433594 C 240.01779 43.759982 242.42361 44.923828 245.6875 44.923828 C 247.90972 44.923828 249.94097 44.429036 251.78125 43.439453 C 253.82986 42.345703 255.45247 40.809245 256.65039 38.830078 C 257.83094 36.868272 258.42188 34.732855 258.42188 32.423828 C 258.42188 29.95855 257.72678 27.997396 256.33789 26.539062 C 254.65386 24.750868 252.38021 23.855469 249.51562 23.855469 z M 342.82812 23.855469 C 340.64062 23.890191 338.62544 24.411024 336.78516 25.417969 C 334.77127 26.511719 333.14062 28.084202 331.89062 30.132812 C 330.77951 31.955729 330.22266 33.87283 330.22266 35.886719 C 330.22266 38.022135 330.74349 39.871094 331.78516 41.433594 C 333.3303 43.759982 335.73611 44.923828 339 44.923828 C 341.22222 44.923828 343.25347 44.429036 345.09375 43.439453 C 347.14236 42.345703 348.76498 40.809245 349.96289 38.830078 C 351.14344 36.868272 351.73438 34.732855 351.73438 32.423828 C 351.73438 29.95855 351.03928 27.997396 349.65039 26.539062 C 347.96636 24.750868 345.6927 23.855469 342.82812 23.855469 z M 269.53516 23.908203 C 268.52822 23.908203 267.39236 24.194661 266.125 24.767578 C 264.85763 25.323133 263.63368 26.086371 262.45312 27.058594 C 263.30382 27.47526 263.72852 28.10026 263.72852 28.933594 C 263.72852 29.263454 263.6684 29.706163 263.54688 30.261719 L 261.59375 39.742188 C 261.50694 40.124132 261.46289 40.452691 261.46289 40.730469 C 261.46289 41.650608 261.77539 42.483941 262.40039 43.230469 C 263.33789 44.376302 264.65799 44.949219 266.35938 44.949219 C 267.52257 44.949219 268.80664 44.628689 270.21289 43.986328 C 271.61914 43.326606 272.9553 42.43316 274.22266 41.304688 C 274.2921 42.415799 274.70877 43.301215 275.47266 43.960938 C 276.25391 44.603298 277.2615 44.923828 278.49414 44.923828 C 280.78581 44.923828 283.03342 44.176649 285.23828 42.683594 C 286.90495 41.53776 287.73828 40.44401 287.73828 39.402344 C 287.73828 39.17665 287.65213 38.978299 287.47852 38.804688 C 287.3049 38.631076 287.09657 38.542969 286.85352 38.542969 C 286.57574 38.542969 286.1671 38.647135 285.62891 38.855469 C 285.2296 39.02908 284.85699 39.117187 284.50977 39.117188 C 284.11046 39.117188 283.76389 38.968967 283.46875 38.673828 C 283.17362 38.361328 283.02539 38.004775 283.02539 37.605469 C 283.02539 37.206163 283.10352 36.633247 283.25977 35.886719 L 285.10938 27.527344 C 285.16144 27.249566 285.1875 26.963107 285.1875 26.667969 C 285.1875 25.817274 284.90907 25.150174 284.35352 24.664062 C 283.81532 24.160591 283.08616 23.908203 282.16602 23.908203 C 279.99588 23.908203 277.574 24.957899 274.90039 27.058594 C 275.4733 27.31901 275.8559 27.579427 276.04688 27.839844 C 276.23785 28.082899 276.33203 28.439453 276.33203 28.908203 C 276.33203 29.272786 276.26389 29.723525 276.125 30.261719 L 275.21289 34.089844 C 274.93511 35.235677 274.5625 36.06901 274.09375 36.589844 C 273.64236 37.110677 273.0434 37.371094 272.29688 37.371094 C 271.34202 37.371094 270.86328 36.912326 270.86328 35.992188 C 270.86328 35.679688 270.90733 35.323133 270.99414 34.923828 L 272.55664 27.527344 C 272.60871 27.284288 272.63477 27.049913 272.63477 26.824219 C 272.63477 25.921441 272.35633 25.210286 271.80078 24.689453 C 271.26259 24.16862 270.50738 23.908203 269.53516 23.908203 z M 248.89062 29.142578 C 250.12327 29.194661 250.73828 29.923828 250.73828 31.330078 C 250.73828 32.267578 250.4438 33.100911 249.85352 33.830078 C 249.26324 34.541883 248.59418 34.898438 247.84766 34.898438 C 247.30946 34.898438 246.86675 34.690104 246.51953 34.273438 C 246.18967 33.856771 246.02539 33.317925 246.02539 32.658203 C 246.02539 31.772786 246.31988 30.957465 246.91016 30.210938 C 247.51779 29.464412 248.17882 29.107858 248.89062 29.142578 z M 342.20312 29.142578 C 343.43576 29.194661 344.05078 29.923828 344.05078 31.330078 C 344.05078 32.267578 343.75629 33.100911 343.16602 33.830078 C 342.57574 34.541883 341.90668 34.898438 341.16016 34.898438 C 340.62196 34.898438 340.17926 34.690104 339.83203 34.273438 C 339.50217 33.856771 339.33789 33.317925 339.33789 32.658203 C 339.33789 31.772786 339.63238 30.957465 340.22266 30.210938 C 340.8303 29.464412 341.49132 29.107858 342.20312 29.142578 z M 316.92188 29.273438 C 317.42535 29.290799 317.83203 29.473091 318.14453 29.820312 C 318.47439 30.150174 318.64062 30.566841 318.64062 31.070312 C 318.64062 32.042535 318.31011 32.93598 317.65039 33.751953 C 316.99066 34.550564 316.2615 34.949219 315.46289 34.949219 C 314.90733 34.949219 314.47266 34.776909 314.16016 34.429688 C 313.86501 34.082465 313.7348 33.613715 313.76953 33.023438 C 313.82161 32.085938 314.17816 31.21658 314.83789 30.417969 C 315.51497 29.61936 316.21007 29.238718 316.92188 29.273438 z M 484.17188 29.273438 C 484.67535 29.290799 485.08203 29.473091 485.39453 29.820312 C 485.72439 30.150174 485.89062 30.566841 485.89062 31.070312 C 485.89062 32.042535 485.56011 32.93598 484.90039 33.751953 C 484.24067 34.550564 483.5115 34.949219 482.71289 34.949219 C 482.15734 34.949219 481.72266 34.776909 481.41016 34.429688 C 481.115 34.082465 480.9848 33.613715 481.01953 33.023438 C 481.07162 32.085938 481.42817 31.21658 482.08789 30.417969 C 482.76498 29.61936 483.46008 29.238717 484.17188 29.273438 z M 404.11328 29.351562 C 405.27648 29.368924 405.85937 29.915799 405.85938 30.992188 C 405.85937 31.825521 405.58095 32.658854 405.02539 33.492188 C 404.45248 34.377604 403.78342 34.820312 403.01953 34.820312 C 401.82162 34.820312 401.22266 34.133247 401.22266 32.761719 C 401.22266 31.980469 401.50912 31.22526 402.08203 30.496094 C 402.65495 29.732205 403.33203 29.351562 404.11328 29.351562 z M 487.51562 64.324219 C 486.36979 64.324219 485.15386 64.602648 483.86914 65.158203 C 482.58442 65.696398 481.41254 66.443577 480.35352 67.398438 C 481.15212 67.797743 481.55078 68.378689 481.55078 69.142578 C 481.55078 69.455075 481.47265 69.967881 481.31641 70.679688 L 475.17188 99.089844 C 476.40451 98.082897 477.60243 97.614147 478.76562 97.683594 L 480.58789 97.683594 C 482.65386 97.80512 483.99002 96.763454 484.59766 94.558594 L 485.90039 88.570312 C 486.21289 87.129339 486.61154 86.103734 487.09766 85.496094 C 487.58376 84.871094 488.22678 84.558594 489.02539 84.558594 C 489.45942 84.558594 489.81597 84.688799 490.09375 84.949219 C 490.37153 85.209632 490.50977 85.558161 490.50977 85.992188 C 490.50977 86.252607 490.45768 86.625221 490.35352 87.111328 L 489.10352 92.736328 C 489.01671 93.083555 488.97266 93.440107 488.97266 93.804688 C 488.97266 95.089408 489.45139 96.147135 490.40625 96.980469 C 491.37847 97.796442 492.61046 98.205078 494.10352 98.205078 C 496.30838 98.205078 498.40972 97.457897 500.40625 95.964844 C 502.02083 94.766924 502.82812 93.717226 502.82812 92.814453 C 502.82812 92.58876 502.74001 92.388457 502.56641 92.214844 C 502.41015 92.02387 502.22786 91.929687 502.01953 91.929688 C 501.79384 91.929688 501.3431 92.059893 500.66602 92.320312 C 500.37088 92.441839 500.06641 92.501953 499.75391 92.501953 C 499.28515 92.501953 498.8865 92.345703 498.55664 92.033203 C 498.24414 91.720703 498.08789 91.338105 498.08789 90.886719 C 498.08789 90.574219 498.17404 90.001302 498.34766 89.167969 L 499.72852 82.996094 C 499.8674 82.353734 499.9375 81.738717 499.9375 81.148438 C 499.9375 79.881078 499.45074 78.865449 498.47852 78.101562 C 497.5931 77.407116 496.43924 77.058594 495.01562 77.058594 C 493.83507 77.058594 492.81944 77.232858 491.96875 77.580078 C 491.13542 77.927305 489.75521 78.752607 487.82812 80.054688 L 490.48438 67.996094 C 490.53644 67.718316 490.5625 67.431857 490.5625 67.136719 C 490.5625 66.268663 490.28407 65.58355 489.72852 65.080078 C 489.19032 64.576606 488.45312 64.324219 487.51562 64.324219 z M 230.7793 64.351562 C 227.28971 64.351562 224.20876 65.58355 221.53516 68.048828 C 219.55599 69.854385 218.16775 71.981774 217.36914 74.429688 C 216.91775 75.766494 216.5612 76.599828 216.30078 76.929688 C 216.05773 77.259547 215.5549 77.519964 214.79102 77.710938 C 213.9056 77.953997 213.34071 78.578997 213.09766 79.585938 L 212.81055 80.964844 C 212.79321 81.05165 212.78516 81.147786 212.78516 81.251953 C 212.78516 82.27626 213.24588 82.789062 214.16602 82.789062 L 215.33789 82.789062 L 210.80664 103.83008 C 211.91775 102.80574 213.03754 102.28491 214.16602 102.26758 L 216.5625 102.26758 C 216.99653 102.26758 217.47331 102.15538 217.99414 101.92969 C 218.53233 101.72135 218.95703 101.46094 219.26953 101.14844 C 219.773 100.66232 220.1556 99.837023 220.41602 98.673828 L 223.90625 82.789062 L 228.38477 82.789062 C 228.94032 82.789062 229.40907 82.632812 229.79102 82.320312 C 230.17296 81.990453 230.42535 81.537764 230.54688 80.964844 L 230.83203 79.585938 C 230.8841 79.342884 230.91016 79.142581 230.91016 78.986328 C 230.91016 78.083555 230.34527 77.632813 229.2168 77.632812 L 225.02539 77.632812 L 225.93555 73.517578 C 226.31749 71.781471 226.76021 70.591579 227.26367 69.949219 C 227.78451 69.306855 228.66189 68.85612 229.89453 68.595703 C 229.47786 69.37695 229.26953 70.054033 229.26953 70.626953 C 229.26953 71.547093 229.60807 72.320312 230.28516 72.945312 C 230.96224 73.570312 231.8036 73.882812 232.81055 73.882812 C 233.95638 73.882812 234.94596 73.492191 235.7793 72.710938 C 236.75152 71.808164 237.23828 70.688369 237.23828 69.351562 C 237.23828 67.823783 236.61328 66.581814 235.36328 65.626953 C 234.25217 64.776258 232.72374 64.351562 230.7793 64.351562 z M 442.94141 67.033203 C 441.43099 67.050564 440.12088 67.527344 439.00977 68.464844 C 437.86393 69.437063 437.29102 70.530814 437.29102 71.746094 C 437.29102 72.839847 437.62153 73.699219 438.28125 74.324219 C 438.9757 74.983939 439.9132 75.314453 441.09375 75.314453 C 442.62153 75.314453 444.02778 74.811634 445.3125 73.804688 C 446.4757 72.901914 447.05664 71.834203 447.05664 70.601562 C 447.05664 69.594617 446.72613 68.777344 446.06641 68.152344 C 445.28516 67.405816 444.24349 67.033203 442.94141 67.033203 z M 516.96289 71.408203 C 515.7997 71.408203 513.52605 72.806422 510.14062 75.601562 C 508.17883 77.233502 506.91884 78.361328 506.36328 78.986328 C 505.82509 79.611328 505.55664 80.244352 505.55664 80.886719 C 505.55664 81.911019 506.18967 82.50195 507.45703 82.658203 C 507.2487 83.69987 506.91015 84.931855 506.44141 86.355469 C 505.71224 88.612409 505.26953 90.070742 505.11328 90.730469 C 504.95703 91.372829 504.87891 92.049919 504.87891 92.761719 C 504.87891 94.272139 505.47787 95.548177 506.67578 96.589844 C 507.85634 97.61415 509.38477 98.126953 511.25977 98.126953 C 513.77713 98.126953 516.06077 97.379779 518.10938 95.886719 C 519.81077 94.654085 520.66016 93.586374 520.66016 92.683594 C 520.66016 92.075954 520.36567 91.773438 519.77539 91.773438 C 519.48025 91.773438 519.08962 91.877604 518.60352 92.085938 C 517.7181 92.450524 516.99696 92.632812 516.44141 92.632812 C 514.84418 92.632812 514.04688 91.903646 514.04688 90.445312 C 514.04688 89.802953 514.14106 89.073786 514.33203 88.257812 C 514.66189 86.921006 514.86219 86.069665 514.93164 85.705078 C 515.29623 84.090498 515.5306 83.07487 515.63477 82.658203 L 518.42188 82.658203 C 519.28994 82.658203 519.90495 82.423831 520.26953 81.955078 C 520.79036 81.277998 521.05078 80.280384 521.05078 78.960938 C 521.05078 77.971357 520.52192 77.476562 519.46289 77.476562 L 516.85938 77.476562 C 516.96354 76.921003 517.30208 75.749131 517.875 73.960938 C 518.08333 73.370664 518.1875 72.901914 518.1875 72.554688 C 518.1875 72.242188 518.06532 71.971787 517.82227 71.746094 C 517.57921 71.5204 517.29275 71.408203 516.96289 71.408203 z M 301.69727 76.980469 C 300.53407 76.980469 299.39627 77.214847 298.28516 77.683594 C 297.17405 78.152347 295.86394 78.943581 294.35352 80.054688 C 294.89171 80.506081 295.23025 80.844619 295.36914 81.070312 C 295.52539 81.296006 295.60352 81.616536 295.60352 82.033203 C 295.60352 82.397783 295.5434 82.858503 295.42188 83.414062 L 293.72852 91.199219 C 293.53754 92.032552 293.44141 92.779733 293.44141 93.439453 C 293.44141 94.79362 293.89409 95.88737 294.79688 96.720703 C 295.69966 97.554036 296.87956 97.970703 298.33789 97.970703 C 300.28233 97.970703 302.574 97.067279 305.21289 95.261719 C 304.67469 97.119359 303.84939 98.569661 302.73828 99.611328 C 301.64453 100.67036 300.3865 101.19922 298.96289 101.19922 C 297.71289 101.19922 296.68924 100.77452 295.89062 99.923828 C 295.4566 99.472441 295.1441 98.821396 294.95312 97.970703 C 293.61632 98.69987 292.67882 99.437065 292.14062 100.18359 C 291.61979 100.94748 291.35938 101.90299 291.35938 103.04883 C 291.35938 104.62869 291.94032 105.91276 293.10352 106.90234 C 294.45768 108.04818 296.31467 108.62109 298.67578 108.62109 C 302.63411 108.62109 306.08963 107.19878 309.04102 104.35156 C 311.38477 102.09462 312.96528 99.063807 313.78125 95.261719 L 316.85352 80.835938 C 316.94032 80.419271 316.98438 80.028643 316.98438 79.664062 C 316.98438 78.865449 316.69792 78.230465 316.125 77.761719 C 315.55209 77.275605 314.79688 77.033203 313.85938 77.033203 C 311.72395 77.033203 309.44835 78.040801 307.03516 80.054688 C 307.78168 80.540801 308.15625 81.181855 308.15625 81.980469 C 308.15625 82.379769 308.08615 82.858503 307.94727 83.414062 L 307.03516 87.267578 C 306.7921 88.309245 306.54167 88.994352 306.28125 89.324219 C 305.70834 90.088105 305.03125 90.470703 304.25 90.470703 C 303.83333 90.470703 303.4848 90.332468 303.20703 90.054688 C 302.92925 89.759547 302.79102 89.402995 302.79102 88.986328 C 302.79102 88.708555 302.85113 88.309896 302.97266 87.789062 L 304.45703 80.835938 C 304.57856 80.315104 304.64062 79.906468 304.64062 79.611328 C 304.64062 78.812721 304.28407 78.135638 303.57227 77.580078 C 303.08615 77.180778 302.46115 76.980469 301.69727 76.980469 z M 442.03125 77.085938 C 439.80903 77.085938 437.43923 78.127604 434.92188 80.210938 C 435.75521 80.644964 436.17187 81.25195 436.17188 82.033203 C 436.17188 82.328343 436.08377 82.893229 435.91016 83.726562 L 434.03516 92.398438 C 433.93099 92.901911 433.87891 93.422744 433.87891 93.960938 C 433.87891 95.158858 434.34766 96.164502 435.28516 96.980469 C 436.24002 97.796442 437.42187 98.205078 438.82812 98.205078 C 440.91146 98.205078 443.02084 97.457897 445.15625 95.964844 C 446.80556 94.81901 447.62891 93.71723 447.62891 92.658203 C 447.62891 92.43251 447.55078 92.232207 447.39453 92.058594 C 447.25564 91.88498 447.08333 91.798828 446.875 91.798828 C 446.64931 91.798828 446.20659 91.937064 445.54688 92.214844 C 445.23438 92.35373 444.91189 92.423828 444.58203 92.423828 C 443.50564 92.423828 442.96875 91.842881 442.96875 90.679688 C 442.96875 90.210941 443.02886 89.716146 443.15039 89.195312 L 445 80.757812 C 445.06945 80.410586 445.10352 80.072047 445.10352 79.742188 C 445.10352 78.926214 444.82508 78.2832 444.26953 77.814453 C 443.71397 77.32834 442.96875 77.085938 442.03125 77.085938 z M 461.71289 77.085938 C 460.0115 77.085938 458.35287 77.580726 456.73828 78.570312 C 454.79384 79.768226 453.18924 81.450954 451.92188 83.621094 C 450.42882 86.19054 449.68164 88.778646 449.68164 91.382812 C 449.68164 93.188366 450.13238 94.784941 451.03516 96.173828 C 451.99002 97.614801 453.33615 98.335938 455.07227 98.335938 C 456.23546 98.335938 457.35525 97.997393 458.43164 97.320312 C 459.50803 96.625866 460.82812 95.409941 462.39062 93.673828 C 461.80035 95.843968 461.14931 97.450521 460.4375 98.492188 C 459.82986 99.377608 459.02257 100.10677 458.01562 100.67969 C 457.02605 101.25261 456.04449 101.53906 455.07227 101.53906 C 453.96115 101.53906 453.03168 101.09636 452.28516 100.21094 C 451.86849 99.724822 451.60807 99.047741 451.50391 98.179688 C 450.18446 98.874134 449.2309 99.611329 448.64062 100.39258 C 448.05034 101.19119 447.75391 102.1467 447.75391 103.25781 C 447.75391 104.69878 448.31076 105.93077 449.42188 106.95508 C 450.81076 108.2398 452.68577 108.88281 455.04688 108.88281 C 458.98785 108.88281 462.46745 107.32834 465.48828 104.2207 C 466.73828 102.93598 467.74587 101.52973 468.50977 100.00195 C 469.27365 98.491531 469.9247 96.590495 470.46289 94.298828 L 473.66602 80.548828 C 473.75282 80.184248 473.79688 79.845703 473.79688 79.533203 C 473.79688 78.838756 473.57053 78.283854 473.11914 77.867188 C 472.68511 77.433161 472.12023 77.214844 471.42578 77.214844 C 470.19314 77.214844 468.6046 77.927949 466.66016 79.351562 C 465.02821 77.841143 463.37956 77.085938 461.71289 77.085938 z M 264.33789 77.111328 C 263.27886 77.111328 262.06293 77.405814 260.69141 77.996094 C 259.33724 78.569014 258.19141 79.282119 257.25391 80.132812 C 258.01779 80.601559 258.40039 81.200521 258.40039 81.929688 C 258.40039 82.450521 258.33029 83.013454 258.19141 83.621094 L 254.91016 99.011719 C 256.07335 98.091572 257.21918 97.64886 258.34766 97.683594 L 260.48438 97.683594 C 260.93577 97.683594 261.41254 97.597441 261.91602 97.423828 C 262.41948 97.232855 262.81814 96.998476 263.11328 96.720703 C 263.77301 96.130423 264.25977 95.166885 264.57227 93.830078 L 265.04102 91.695312 C 265.50976 89.629339 266.11675 88.014756 266.86328 86.851562 C 267.62717 85.688369 268.70486 84.698786 270.09375 83.882812 C 270.0243 84.230032 269.98828 84.49848 269.98828 84.689453 C 269.98828 85.3839 270.30078 85.982861 270.92578 86.486328 C 271.56814 86.989801 272.32335 87.242187 273.19141 87.242188 C 274.44141 87.242187 275.57921 86.755423 276.60352 85.783203 C 277.97504 84.463756 278.66016 82.893226 278.66016 81.070312 C 278.66016 79.889753 278.26953 78.942269 277.48828 78.230469 C 276.75911 77.570742 275.82161 77.242187 274.67578 77.242188 C 273.13064 77.242188 271.67231 77.753037 270.30078 78.777344 C 269.72787 79.19401 268.6862 80.105465 267.17578 81.511719 C 267.31467 80.608939 267.38477 79.975915 267.38477 79.611328 C 267.38477 78.830081 267.11633 78.223089 266.57812 77.789062 C 266.03993 77.337669 265.29275 77.111328 264.33789 77.111328 z M 381.21289 77.111328 C 380.15386 77.111328 378.93793 77.405814 377.56641 77.996094 C 376.21224 78.569014 375.06641 79.282119 374.12891 80.132812 C 374.89279 80.601559 375.27539 81.200521 375.27539 81.929688 C 375.27539 82.450521 375.20529 83.013454 375.06641 83.621094 L 371.78516 99.011719 C 372.94835 98.091572 374.09418 97.64886 375.22266 97.683594 L 377.35938 97.683594 C 377.81077 97.683594 378.28754 97.597441 378.79102 97.423828 C 379.29448 97.232855 379.69314 96.998476 379.98828 96.720703 C 380.64801 96.130423 381.13477 95.166885 381.44727 93.830078 L 381.91602 91.695312 C 382.38476 89.629339 382.99175 88.014756 383.73828 86.851562 C 384.50217 85.688369 385.57986 84.698786 386.96875 83.882812 C 386.8993 84.230032 386.86328 84.49848 386.86328 84.689453 C 386.86328 85.3839 387.17578 85.982861 387.80078 86.486328 C 388.44314 86.989801 389.19835 87.242187 390.06641 87.242188 C 391.31641 87.242187 392.45421 86.755423 393.47852 85.783203 C 394.85004 84.463756 395.53516 82.893226 395.53516 81.070312 C 395.53516 79.889753 395.14453 78.942269 394.36328 78.230469 C 393.63411 77.570742 392.69661 77.242187 391.55078 77.242188 C 390.00564 77.242188 388.54731 77.753037 387.17578 78.777344 C 386.60287 79.19401 385.5612 80.105465 384.05078 81.511719 C 384.18967 80.608939 384.25977 79.975915 384.25977 79.611328 C 384.25977 78.830081 383.99133 78.223089 383.45312 77.789062 C 382.91493 77.337669 382.16775 77.111328 381.21289 77.111328 z M 418.54688 77.111328 C 417.48785 77.111328 416.27192 77.405814 414.90039 77.996094 C 413.54622 78.569014 412.40039 79.282119 411.46289 80.132812 C 412.22678 80.601559 412.60938 81.200521 412.60938 81.929688 C 412.60938 82.450521 412.53928 83.013454 412.40039 83.621094 L 409.11914 99.011719 C 410.28233 98.091572 411.42817 97.64886 412.55664 97.683594 L 414.69141 97.683594 C 415.1428 97.683594 415.62153 97.597441 416.125 97.423828 C 416.62847 97.232855 417.02713 96.998476 417.32227 96.720703 C 417.98199 96.130423 418.46875 95.166885 418.78125 93.830078 L 419.25 91.695312 C 419.71875 89.629339 420.32574 88.014756 421.07227 86.851562 C 421.83615 85.688369 422.91189 84.698786 424.30078 83.882812 C 424.23133 84.230032 424.19727 84.49848 424.19727 84.689453 C 424.19727 85.3839 424.50977 85.982861 425.13477 86.486328 C 425.77713 86.989801 426.53233 87.242187 427.40039 87.242188 C 428.65039 87.242187 429.7882 86.755423 430.8125 85.783203 C 432.18403 84.463756 432.86914 82.893226 432.86914 81.070312 C 432.86914 79.889753 432.47852 78.942269 431.69727 78.230469 C 430.9681 77.570742 430.0306 77.242187 428.88477 77.242188 C 427.33963 77.242188 425.88129 77.753037 424.50977 78.777344 C 423.93685 79.19401 422.89519 80.105465 421.38477 81.511719 C 421.52365 80.608939 421.59375 79.975915 421.59375 79.611328 C 421.59375 78.830081 421.32335 78.223089 420.78516 77.789062 C 420.24696 77.337669 419.50174 77.111328 418.54688 77.111328 z M 243.84766 77.189453 C 241.66016 77.224173 239.64692 77.745006 237.80664 78.751953 C 235.79275 79.8457 234.16016 81.41623 232.91016 83.464844 C 231.79904 85.287764 231.24414 87.206816 231.24414 89.220703 C 231.24414 91.356116 231.76497 93.205078 232.80664 94.767578 C 234.35178 97.093971 236.75564 98.257813 240.01953 98.257812 C 242.24176 98.257813 244.27301 97.763024 246.11328 96.773438 C 248.16189 95.679691 249.78646 94.143229 250.98438 92.164062 C 252.16494 90.202256 252.75391 88.066839 252.75391 85.757812 C 252.75391 83.292532 252.06077 81.329427 250.67188 79.871094 C 248.98785 78.0829 246.71224 77.189453 243.84766 77.189453 z M 332.36914 77.189453 C 330.18164 77.224173 328.16841 77.745006 326.32812 78.751953 C 324.31424 79.8457 322.68164 81.41623 321.43164 83.464844 C 320.32053 85.287764 319.76562 87.206816 319.76562 89.220703 C 319.76562 91.356116 320.28646 93.205078 321.32812 94.767578 C 322.87327 97.093971 325.27713 98.257813 328.54102 98.257812 C 330.76324 98.257813 332.79449 97.763024 334.63477 96.773438 C 336.68338 95.679691 338.30599 94.143229 339.50391 92.164062 C 340.68446 90.202256 341.27539 88.066839 341.27539 85.757812 C 341.27539 83.292532 340.58029 81.329427 339.19141 79.871094 C 337.50737 78.0829 335.23372 77.189453 332.36914 77.189453 z M 352.39062 77.242188 C 351.38368 77.242188 350.24588 77.528642 348.97852 78.101562 C 347.71116 78.657116 346.48719 79.420358 345.30664 80.392578 C 346.15733 80.809245 346.58203 81.434245 346.58203 82.267578 C 346.58203 82.597445 346.52192 83.04015 346.40039 83.595703 L 344.44727 93.074219 C 344.36046 93.456165 344.31641 93.786673 344.31641 94.064453 C 344.31641 94.984593 344.62891 95.817926 345.25391 96.564453 C 346.19141 97.710286 347.5115 98.283203 349.21289 98.283203 C 350.37608 98.283203 351.66016 97.962672 353.06641 97.320312 C 354.47266 96.660586 355.81076 95.765192 357.07812 94.636719 C 357.14757 95.747832 357.56424 96.633249 358.32812 97.292969 C 359.10937 97.935335 360.11502 98.257812 361.34766 98.257812 C 363.63932 98.257812 365.88889 97.510638 368.09375 96.017578 C 369.76042 94.871745 370.59375 93.777995 370.59375 92.736328 C 370.59375 92.510635 370.50564 92.310325 370.33203 92.136719 C 370.15842 91.963105 369.95008 91.876953 369.70703 91.876953 C 369.42925 91.876953 369.02257 91.98112 368.48438 92.189453 C 368.08507 92.363066 367.7105 92.449219 367.36328 92.449219 C 366.96397 92.449219 366.61741 92.302953 366.32227 92.007812 C 366.02713 91.695312 365.87891 91.33876 365.87891 90.939453 C 365.87891 90.540146 365.95703 89.96723 366.11328 89.220703 L 367.96289 80.861328 C 368.01496 80.583555 368.04102 80.297093 368.04102 80.001953 C 368.04102 79.15126 367.76258 78.482207 367.20703 77.996094 C 366.66884 77.49262 365.93967 77.242188 365.01953 77.242188 C 362.84939 77.242188 360.42752 78.291885 357.75391 80.392578 C 358.32683 80.652998 358.70942 80.913415 358.90039 81.173828 C 359.09136 81.416888 359.1875 81.773441 359.1875 82.242188 C 359.1875 82.606774 359.1174 83.05751 358.97852 83.595703 L 358.06641 87.423828 C 357.78863 88.569661 357.41602 89.402995 356.94727 89.923828 C 356.49588 90.444661 355.89692 90.705078 355.15039 90.705078 C 354.19552 90.705078 353.71875 90.244352 353.71875 89.324219 C 353.71875 89.011719 353.76085 88.657119 353.84766 88.257812 L 355.41016 80.861328 C 355.46222 80.618275 355.48828 80.383896 355.48828 80.158203 C 355.48828 79.255423 355.21181 78.544271 354.65625 78.023438 C 354.11806 77.502604 353.36284 77.242188 352.39062 77.242188 z M 243.22266 82.476562 C 244.4553 82.528643 245.07227 83.257809 245.07227 84.664062 C 245.07227 85.601562 244.77778 86.434896 244.1875 87.164062 C 243.59722 87.875869 242.92817 88.230469 242.18164 88.230469 C 241.64345 88.230469 241.20074 88.022135 240.85352 87.605469 C 240.52365 87.188802 240.35938 86.651914 240.35938 85.992188 C 240.35938 85.106774 240.65386 84.289495 241.24414 83.542969 C 241.85178 82.796429 242.51085 82.441829 243.22266 82.476562 z M 331.74414 82.476562 C 332.97678 82.528643 333.59375 83.257809 333.59375 84.664062 C 333.59375 85.601562 333.29731 86.434896 332.70703 87.164062 C 332.11675 87.875869 331.44965 88.230469 330.70312 88.230469 C 330.16493 88.230469 329.72222 88.022135 329.375 87.605469 C 329.04514 87.188802 328.87891 86.651914 328.87891 85.992188 C 328.87891 85.106774 329.17535 84.289495 329.76562 83.542969 C 330.37327 82.796429 331.03233 82.441829 331.74414 82.476562 z M 462.75391 82.605469 C 463.25738 82.622829 463.66602 82.805124 463.97852 83.152344 C 464.30838 83.482204 464.47266 83.89887 464.47266 84.402344 C 464.47266 85.374564 464.1441 86.269964 463.48438 87.085938 C 462.82465 87.884551 462.09549 88.283203 461.29688 88.283203 C 460.74132 88.283203 460.30664 88.108939 459.99414 87.761719 C 459.69899 87.414492 459.56878 86.945742 459.60352 86.355469 C 459.6556 85.417969 460.01215 84.550566 460.67188 83.751953 C 461.34896 82.953333 462.0421 82.570735 462.75391 82.605469 z M 501.8125 121.77344 C 500.70139 121.77344 499.64171 122.11198 498.63477 122.78906 C 497.62782 123.44878 496.90668 124.29818 496.47266 125.33984 C 495.7782 126.98915 495.40558 129.2207 495.35352 132.0332 L 495.19727 138.83008 L 495.17188 139.76758 C 495.17188 140.75716 495.68272 141.25195 496.70703 141.25195 L 499.44141 141.25195 L 499.49414 141.25195 C 500.48373 141.52973 501.27301 140.90473 501.86328 139.37695 L 505.22266 130.65234 C 505.77821 129.22873 506.11675 128.30121 506.23828 127.86719 C 506.35981 127.4158 506.42188 126.88498 506.42188 126.27734 C 506.42187 124.99262 505.97916 123.92492 505.09375 123.07422 C 504.2257 122.20617 503.13195 121.77344 501.8125 121.77344 z M 241.86914 124.74219 C 240.70595 124.74219 238.43229 126.13845 235.04688 128.93359 C 233.08508 130.56554 231.82509 131.69531 231.26953 132.32031 C 230.73134 132.94531 230.46289 133.57834 230.46289 134.2207 C 230.46289 135.24501 231.09592 135.83594 232.36328 135.99219 C 232.15495 137.03385 231.8164 138.26584 231.34766 139.68945 C 230.61849 141.94639 230.17578 143.40473 230.01953 144.06445 C 229.86328 144.70681 229.78516 145.3839 229.78516 146.0957 C 229.78516 147.60612 230.38412 148.88216 231.58203 149.92383 C 232.76259 150.94813 234.29102 151.46094 236.16602 151.46094 C 238.68338 151.46094 240.96702 150.71376 243.01562 149.2207 C 244.71702 147.98806 245.56641 146.92036 245.56641 146.01758 C 245.56641 145.40994 245.27192 145.10547 244.68164 145.10547 C 244.3865 145.10547 243.99587 145.20964 243.50977 145.41797 C 242.62435 145.78256 241.90321 145.96484 241.34766 145.96484 C 239.75043 145.96484 238.95312 145.23568 238.95312 143.77734 C 238.95312 143.13498 239.04731 142.40582 239.23828 141.58984 C 239.56814 140.25304 239.76844 139.40364 239.83789 139.03906 C 240.20248 137.42448 240.43685 136.40885 240.54102 135.99219 L 243.32812 135.99219 C 244.19619 135.99219 244.8112 135.75781 245.17578 135.28906 C 245.69661 134.61198 245.95703 133.61242 245.95703 132.29297 C 245.95703 131.30339 245.42817 130.80859 244.36914 130.80859 L 241.76562 130.80859 C 241.86979 130.25304 242.20833 129.08117 242.78125 127.29297 C 242.98958 126.7027 243.09375 126.23395 243.09375 125.88672 C 243.09375 125.57422 242.97157 125.30577 242.72852 125.08008 C 242.48546 124.85438 242.199 124.74219 241.86914 124.74219 z M 457.78516 124.74219 C 456.62196 124.74219 454.34831 126.13845 450.96289 128.93359 C 449.00108 130.56554 447.74305 131.69531 447.1875 132.32031 C 446.64931 132.94531 446.37891 133.57834 446.37891 134.2207 C 446.37891 135.24501 447.01389 135.83594 448.28125 135.99219 C 448.07292 137.03385 447.73438 138.26584 447.26562 139.68945 C 446.53646 141.94639 446.09375 143.40473 445.9375 144.06445 C 445.78125 144.70681 445.70312 145.3839 445.70312 146.0957 C 445.70312 147.60612 446.30208 148.88216 447.5 149.92383 C 448.68055 150.94813 450.20703 151.46094 452.08203 151.46094 C 454.59939 151.46094 456.88303 150.71376 458.93164 149.2207 C 460.63303 147.98806 461.48438 146.92036 461.48438 146.01758 C 461.48438 145.40994 461.18793 145.10547 460.59766 145.10547 C 460.30252 145.10547 459.91189 145.20964 459.42578 145.41797 C 458.54037 145.78256 457.82119 145.96484 457.26562 145.96484 C 455.66841 145.96484 454.86914 145.23568 454.86914 143.77734 C 454.86914 143.13498 454.96528 142.40582 455.15625 141.58984 C 455.48611 140.25304 455.68446 139.40364 455.75391 139.03906 C 456.11849 137.42448 456.35286 136.40885 456.45703 135.99219 L 459.24414 135.99219 C 460.11219 135.99219 460.72916 135.75781 461.09375 135.28906 C 461.61458 134.61198 461.875 133.61242 461.875 132.29297 C 461.875 131.30339 461.34418 130.80859 460.28516 130.80859 L 457.68164 130.80859 C 457.78581 130.25304 458.12435 129.08117 458.69727 127.29297 C 458.9056 126.7027 459.00977 126.23395 459.00977 125.88672 C 459.00977 125.57422 458.88759 125.30577 458.64453 125.08008 C 458.40148 124.85438 458.11502 124.74219 457.78516 124.74219 z M 295.89062 126.7207 C 293.70312 126.7207 291.32335 127.7283 288.75391 129.74219 C 289.48307 130.29774 289.84766 130.90473 289.84766 131.56445 C 289.84766 131.94639 289.76953 132.49327 289.61328 133.20508 L 282.76562 163.04883 C 283.51216 162.38911 284.11111 161.95443 284.5625 161.74609 C 284.99653 161.53776 285.55143 161.43359 286.22852 161.43359 L 288.51953 161.43359 C 289.648 161.43359 290.53342 161.13108 291.17578 160.52344 C 291.83551 159.93316 292.32227 158.96961 292.63477 157.63281 L 294.5625 149.01172 C 295.36111 149.96659 296.15842 150.64367 296.95703 151.04297 C 297.773 151.44228 298.73654 151.64258 299.84766 151.64258 C 301.0803 151.64258 302.27018 151.35612 303.41602 150.7832 C 304.57921 150.21028 305.56077 149.421 306.35938 148.41406 C 307.53993 146.95573 308.46745 145.25304 309.14453 143.30859 C 309.82162 141.36415 310.16016 139.45508 310.16016 137.58008 C 310.16016 135.77452 309.72744 134.23806 308.85938 132.9707 C 307.67882 131.25195 305.98611 130.39258 303.78125 130.39258 C 302.09722 130.39258 300.30838 131.03559 298.41602 132.32031 L 298.80664 130.39258 C 298.91081 129.87174 298.96289 129.45508 298.96289 129.14258 C 298.96289 128.37869 298.69444 127.78776 298.15625 127.37109 C 297.61806 126.93707 296.86285 126.7207 295.89062 126.7207 z M 472.20703 130.31445 C 471.04384 130.31445 469.90799 130.54883 468.79688 131.01758 C 467.68577 131.48633 466.3737 132.27561 464.86328 133.38672 C 465.40147 133.83811 465.74001 134.17665 465.87891 134.40234 C 466.03515 134.62804 466.11328 134.95052 466.11328 135.36719 C 466.11328 135.73177 466.05317 136.19054 465.93164 136.74609 L 464.23828 144.5332 C 464.04731 145.36654 463.95313 146.11372 463.95312 146.77344 C 463.95313 148.1276 464.40386 149.22135 465.30664 150.05469 C 466.20942 150.88802 467.38932 151.30469 468.84766 151.30469 C 470.7921 151.30469 473.08376 150.40126 475.72266 148.5957 C 475.18446 150.45334 474.36111 151.90365 473.25 152.94531 C 472.15625 154.00434 470.89626 154.5332 469.47266 154.5332 C 468.22266 154.5332 467.199 154.10851 466.40039 153.25781 C 465.96636 152.80642 465.65386 152.15538 465.46289 151.30469 C 464.12608 152.03385 463.18858 152.77105 462.65039 153.51758 C 462.12956 154.28147 461.86914 155.23698 461.86914 156.38281 C 461.86914 157.96267 462.45009 159.24675 463.61328 160.23633 C 464.96745 161.38216 466.82639 161.95508 469.1875 161.95508 C 473.14583 161.95508 476.59939 160.53081 479.55078 157.68359 C 481.89453 155.42665 483.47504 152.39778 484.29102 148.5957 L 487.36328 134.16797 C 487.45009 133.7513 487.49414 133.36067 487.49414 132.99609 C 487.49414 132.19748 487.20768 131.56445 486.63477 131.0957 C 486.06185 130.60959 485.30664 130.36719 484.36914 130.36719 C 482.23373 130.36719 479.96007 131.37283 477.54688 133.38672 C 478.29341 133.87283 478.66602 134.51584 478.66602 135.31445 C 478.66602 135.71376 478.59592 136.19054 478.45703 136.74609 L 477.54688 140.60156 C 477.30382 141.64323 477.05143 142.32834 476.79102 142.6582 C 476.2181 143.42209 475.54101 143.80469 474.75977 143.80469 C 474.3431 143.80469 473.99653 143.6645 473.71875 143.38672 C 473.44097 143.09159 473.30078 142.73698 473.30078 142.32031 C 473.30078 142.04253 473.36285 141.64193 473.48438 141.12109 L 474.96875 134.16797 C 475.09028 133.64714 475.15039 133.24045 475.15039 132.94531 C 475.15039 132.1467 474.79384 131.46962 474.08203 130.91406 C 473.59592 130.51476 472.97092 130.31445 472.20703 130.31445 z M 406.49414 130.44531 C 405.43511 130.44531 404.21918 130.7398 402.84766 131.33008 C 401.49349 131.903 400.34766 132.61415 399.41016 133.46484 C 400.17405 133.93359 400.55664 134.53255 400.55664 135.26172 C 400.55664 135.78255 400.48655 136.34744 400.34766 136.95508 L 397.06641 152.3457 C 398.2296 151.42555 399.37543 150.98284 400.50391 151.01758 L 402.64062 151.01758 C 403.09201 151.01758 403.56879 150.93142 404.07227 150.75781 C 404.57574 150.56684 404.97439 150.33247 405.26953 150.05469 C 405.92925 149.46441 406.41602 148.50086 406.72852 147.16406 L 407.19727 145.02734 C 407.66602 142.96137 408.273 141.34679 409.01953 140.18359 C 409.78342 139.0204 410.86111 138.03082 412.25 137.21484 C 412.18056 137.56206 412.14453 137.83246 412.14453 138.02344 C 412.14453 138.71788 412.45703 139.31684 413.08203 139.82031 C 413.72439 140.32378 414.4796 140.57422 415.34766 140.57422 C 416.59766 140.57422 417.73546 140.08941 418.75977 139.11719 C 420.13129 137.79774 420.81641 136.22526 420.81641 134.40234 C 420.81641 133.22179 420.42578 132.27626 419.64453 131.56445 C 418.91536 130.90473 417.97786 130.57422 416.83203 130.57422 C 415.28689 130.57422 413.82856 131.08702 412.45703 132.11133 C 411.88411 132.52799 410.84244 133.43945 409.33203 134.8457 C 409.47092 133.94292 409.54102 133.30989 409.54102 132.94531 C 409.54102 132.16406 409.27257 131.55512 408.73438 131.12109 C 408.19618 130.66971 407.449 130.44531 406.49414 130.44531 z M 430.16016 130.44531 C 429.10113 130.44531 427.88715 130.7398 426.51562 131.33008 C 425.16146 131.903 424.01562 132.61415 423.07812 133.46484 C 423.84201 133.93359 424.22266 134.53255 424.22266 135.26172 C 424.22266 135.78255 424.15451 136.34744 424.01562 136.95508 L 420.73438 152.3457 C 421.89757 151.42555 423.0434 150.98284 424.17188 151.01758 L 426.30664 151.01758 C 426.75803 151.01758 427.23481 150.93142 427.73828 150.75781 C 428.24175 150.56684 428.64237 150.33247 428.9375 150.05469 C 429.59723 149.46441 430.08203 148.50086 430.39453 147.16406 L 430.86328 145.02734 C 431.33203 142.96137 431.94097 141.34679 432.6875 140.18359 C 433.45139 139.0204 434.52713 138.03082 435.91602 137.21484 C 435.84657 137.56206 435.8125 137.83246 435.8125 138.02344 C 435.8125 138.71788 436.125 139.31684 436.75 139.82031 C 437.39237 140.32378 438.14757 140.57422 439.01562 140.57422 C 440.26562 140.57422 441.40147 140.08941 442.42578 139.11719 C 443.79731 137.79774 444.48438 136.22526 444.48438 134.40234 C 444.48437 133.22179 444.09375 132.27626 443.3125 131.56445 C 442.58333 130.90473 441.64583 130.57422 440.5 130.57422 C 438.95487 130.57422 437.49653 131.08702 436.125 132.11133 C 435.55209 132.52799 434.51042 133.43945 433 134.8457 C 433.13889 133.94292 433.20703 133.30989 433.20703 132.94531 C 433.20703 132.16406 432.93858 131.55512 432.40039 131.12109 C 431.86219 130.66971 431.11502 130.44531 430.16016 130.44531 z M 324.66016 130.4707 C 323.35807 130.4707 322.02995 130.81728 320.67578 131.51172 C 319.32161 132.20617 318.08963 133.17969 316.97852 134.42969 C 315.71116 135.83594 314.72157 137.44054 314.00977 139.24609 C 313.29797 141.05165 312.94141 142.86653 312.94141 144.68945 C 312.94141 146.56445 313.35807 148.10895 314.19141 149.32422 C 315.25043 150.90409 316.64063 151.69531 318.35938 151.69531 C 320.02604 151.69531 321.59657 150.99219 323.07227 149.58594 C 323.76671 148.92622 324.80035 147.75434 326.17188 146.07031 C 326.13714 146.53906 326.11914 146.94575 326.11914 147.29297 C 326.11914 148.52561 326.52778 149.55924 327.34375 150.39258 C 328.15972 151.20855 329.17535 151.61719 330.39062 151.61719 C 333.01215 151.61719 335.46007 150.64367 337.73438 148.69922 C 338.82813 147.76172 339.375 146.92035 339.375 146.17383 C 339.375 145.93077 339.28689 145.71441 339.11328 145.52344 C 338.93967 145.33246 338.74132 145.23633 338.51562 145.23633 C 338.27257 145.23633 337.85591 145.3585 337.26562 145.60156 C 336.90105 145.74045 336.54449 145.80859 336.19727 145.80859 C 335.76324 145.80859 335.39062 145.67036 335.07812 145.39258 C 334.76562 145.1148 334.60938 144.78429 334.60938 144.40234 C 334.60938 144.05512 334.71354 143.42209 334.92188 142.50195 L 336.90039 133.64844 C 336.9872 133.24913 337.03125 132.90061 337.03125 132.60547 C 337.03125 131.80686 336.66667 131.22591 335.9375 130.86133 C 335.59027 130.68772 335.17361 130.60156 334.6875 130.60156 C 333.95833 130.60156 333.28928 130.7398 332.68164 131.01758 C 332.09136 131.29536 331.14583 131.89431 329.84375 132.81445 C 328.48958 131.25195 326.76085 130.4707 324.66016 130.4707 z M 352.91016 130.4707 C 351.60807 130.4707 350.27995 130.81728 348.92578 131.51172 C 347.57161 132.20617 346.33963 133.17969 345.22852 134.42969 C 343.96116 135.83594 342.97157 137.44054 342.25977 139.24609 C 341.54797 141.05165 341.19141 142.86653 341.19141 144.68945 C 341.19141 146.56445 341.60807 148.10895 342.44141 149.32422 C 343.50043 150.90409 344.89063 151.69531 346.60938 151.69531 C 348.27604 151.69531 349.84657 150.99219 351.32227 149.58594 C 352.01671 148.92622 353.05035 147.75434 354.42188 146.07031 C 354.38714 146.53906 354.36914 146.94575 354.36914 147.29297 C 354.36914 148.52561 354.77778 149.55924 355.59375 150.39258 C 356.40972 151.20855 357.42535 151.61719 358.64062 151.61719 C 361.26215 151.61719 363.71007 150.64367 365.98438 148.69922 C 367.07813 147.76172 367.625 146.92035 367.625 146.17383 C 367.625 145.93077 367.53689 145.71441 367.36328 145.52344 C 367.18967 145.33246 366.99132 145.23633 366.76562 145.23633 C 366.52257 145.23633 366.10591 145.3585 365.51562 145.60156 C 365.15105 145.74045 364.79449 145.80859 364.44727 145.80859 C 364.01324 145.80859 363.64062 145.67036 363.32812 145.39258 C 363.01562 145.1148 362.85938 144.78429 362.85938 144.40234 C 362.85938 144.05512 362.96354 143.42209 363.17188 142.50195 L 365.15039 133.64844 C 365.2372 133.24913 365.28125 132.90061 365.28125 132.60547 C 365.28125 131.80686 364.91667 131.22591 364.1875 130.86133 C 363.84027 130.68772 363.42361 130.60156 362.9375 130.60156 C 362.20833 130.60156 361.53928 130.7398 360.93164 131.01758 C 360.34136 131.29536 359.39583 131.89431 358.09375 132.81445 C 356.73958 131.25195 355.01085 130.4707 352.91016 130.4707 z M 381.16016 130.4707 C 379.85808 130.4707 378.52995 130.81728 377.17578 131.51172 C 375.82161 132.20617 374.58963 133.17969 373.47852 134.42969 C 372.21116 135.83594 371.22157 137.44054 370.50977 139.24609 C 369.79796 141.05165 369.44141 142.86653 369.44141 144.68945 C 369.44141 146.56445 369.85807 148.10895 370.69141 149.32422 C 371.75043 150.90409 373.14062 151.69531 374.85938 151.69531 C 376.52604 151.69531 378.09657 150.99219 379.57227 149.58594 C 380.26671 148.92622 381.30035 147.75434 382.67188 146.07031 C 382.63714 146.53906 382.61914 146.94575 382.61914 147.29297 C 382.61914 148.52561 383.02778 149.55924 383.84375 150.39258 C 384.65972 151.20855 385.67534 151.61719 386.89062 151.61719 C 389.51215 151.61719 391.96007 150.64367 394.23438 148.69922 C 395.32812 147.76172 395.875 146.92035 395.875 146.17383 C 395.875 145.93077 395.78689 145.71441 395.61328 145.52344 C 395.43967 145.33246 395.24132 145.23633 395.01562 145.23633 C 394.77257 145.23633 394.35591 145.3585 393.76562 145.60156 C 393.40104 145.74045 393.04449 145.80859 392.69727 145.80859 C 392.26324 145.80859 391.89062 145.67036 391.57812 145.39258 C 391.26562 145.1148 391.10938 144.78429 391.10938 144.40234 C 391.10938 144.05512 391.21354 143.42209 391.42188 142.50195 L 393.40039 133.64844 C 393.48719 133.24913 393.53125 132.90061 393.53125 132.60547 C 393.53125 131.80686 393.16667 131.22591 392.4375 130.86133 C 392.09028 130.68772 391.67361 130.60156 391.1875 130.60156 C 390.45833 130.60156 389.78927 130.7398 389.18164 131.01758 C 388.59136 131.29536 387.64584 131.89431 386.34375 132.81445 C 384.98958 131.25195 383.26085 130.4707 381.16016 130.4707 z M 260.37891 130.52344 C 258.19141 130.55816 256.17817 131.07899 254.33789 132.08594 C 252.324 133.17969 250.69141 134.75022 249.44141 136.79883 C 248.33029 138.62175 247.77539 140.5408 247.77539 142.55469 C 247.77539 144.69011 248.29622 146.53906 249.33789 148.10156 C 250.88303 150.42795 253.28689 151.58984 256.55078 151.58984 C 258.77301 151.58984 260.80426 151.09506 262.64453 150.10547 C 264.69314 149.01172 266.31771 147.47526 267.51562 145.49609 C 268.69619 143.53429 269.28516 141.39887 269.28516 139.08984 C 269.28516 136.62456 268.59202 134.66341 267.20312 133.20508 C 265.5191 131.41688 263.24349 130.52344 260.37891 130.52344 z M 259.75391 135.80859 C 260.98655 135.86067 261.60352 136.58984 261.60352 137.99609 C 261.60352 138.93359 261.30903 139.76693 260.71875 140.49609 C 260.12847 141.2079 259.45942 141.56445 258.71289 141.56445 C 258.1747 141.56445 257.73199 141.35612 257.38477 140.93945 C 257.0549 140.52279 256.89062 139.98395 256.89062 139.32422 C 256.89062 138.43881 257.18511 137.62348 257.77539 136.87695 C 258.38303 136.13041 259.0421 135.77386 259.75391 135.80859 z M 299.50977 135.83594 C 300.69032 135.88802 301.28125 136.52909 301.28125 137.76172 C 301.28125 138.73395 300.98481 139.61133 300.39453 140.39258 C 299.80426 141.15647 299.12717 141.53906 298.36328 141.53906 C 297.80773 141.53906 297.35699 141.34679 297.00977 140.96484 C 296.67989 140.56554 296.53167 140.07075 296.56641 139.48047 C 296.63585 138.50825 296.96636 137.65885 297.55664 136.92969 C 298.14692 136.20052 298.79796 135.83594 299.50977 135.83594 z M 325.9375 136.01758 C 327.10069 136.03494 327.68164 136.58181 327.68164 137.6582 C 327.68164 138.49154 327.40321 139.32487 326.84766 140.1582 C 326.27474 141.04362 325.60764 141.48633 324.84375 141.48633 C 323.64583 141.48633 323.04688 140.80121 323.04688 139.42969 C 323.04688 138.64844 323.33333 137.89323 323.90625 137.16406 C 324.47916 136.40017 325.15625 136.01758 325.9375 136.01758 z M 354.1875 136.01758 C 355.35069 136.03494 355.93164 136.58181 355.93164 137.6582 C 355.93164 138.49154 355.65321 139.32487 355.09766 140.1582 C 354.52474 141.04362 353.85764 141.48633 353.09375 141.48633 C 351.89583 141.48633 351.29688 140.80121 351.29688 139.42969 C 351.29688 138.64844 351.58333 137.89323 352.15625 137.16406 C 352.72916 136.40017 353.40625 136.01758 354.1875 136.01758 z M 382.4375 136.01758 C 383.6007 136.03494 384.18164 136.58181 384.18164 137.6582 C 384.18164 138.49154 383.90322 139.32487 383.34766 140.1582 C 382.77474 141.04362 382.10764 141.48633 381.34375 141.48633 C 380.14584 141.48633 379.54688 140.80121 379.54688 139.42969 C 379.54688 138.64844 379.83334 137.89323 380.40625 137.16406 C 380.97917 136.40017 381.65625 136.01758 382.4375 136.01758 z M 497.17578 142.11133 C 495.80425 142.12869 494.61632 142.62348 493.60938 143.5957 C 492.60244 144.56792 492.09766 145.70573 492.09766 147.00781 C 492.09766 148.22309 492.48025 149.23871 493.24414 150.05469 C 494.00803 150.8533 494.96354 151.25195 496.10938 151.25195 C 497.42882 151.25195 498.56467 150.80925 499.51953 149.92383 C 500.66536 148.8648 501.23828 147.58073 501.23828 146.07031 C 501.23828 145.04601 500.89974 144.15061 500.22266 143.38672 C 499.4414 142.53603 498.42578 142.11133 497.17578 142.11133 z "
     id="path4764" /></g></svg>